<?xml version="1.0" encoding="utf-8"?>
<svg xmlns="http://www.w3.org/2000/svg" xmlns:xlink="http://www.w3.org/1999/xlink" width="600" height="400" viewBox="0 0 2400 1600">
<defs>
  <clipPath id="clip000">
    <rect x="0" y="0" width="2400" height="1600"/>
  </clipPath>
</defs>
<path clip-path="url(#clip000)" d="M0 1600 L2400 1600 L2400 0 L0 0  Z" fill="#ffffff" fill-rule="evenodd" fill-opacity="1"/>
<defs>
  <clipPath id="clip001">
    <rect x="480" y="0" width="1681" height="1600"/>
  </clipPath>
</defs>
<path clip-path="url(#clip000)" d="M193.936 1486.45 L2352.76 1486.45 L2352.76 47.2441 L193.936 47.2441  Z" fill="#ffffff" fill-rule="evenodd" fill-opacity="1"/>
<defs>
  <clipPath id="clip002">
    <rect x="193" y="47" width="2160" height="1440"/>
  </clipPath>
</defs>
<polyline clip-path="url(#clip002)" style="stroke:#000000; stroke-linecap:round; stroke-linejoin:round; stroke-width:2; stroke-opacity:0.1; fill:none" points="283.548,1486.45 283.548,47.2441 "/>
<polyline clip-path="url(#clip002)" style="stroke:#000000; stroke-linecap:round; stroke-linejoin:round; stroke-width:2; stroke-opacity:0.1; fill:none" points="616.638,1486.45 616.638,47.2441 "/>
<polyline clip-path="url(#clip002)" style="stroke:#000000; stroke-linecap:round; stroke-linejoin:round; stroke-width:2; stroke-opacity:0.1; fill:none" points="949.728,1486.45 949.728,47.2441 "/>
<polyline clip-path="url(#clip002)" style="stroke:#000000; stroke-linecap:round; stroke-linejoin:round; stroke-width:2; stroke-opacity:0.1; fill:none" points="1282.82,1486.45 1282.82,47.2441 "/>
<polyline clip-path="url(#clip002)" style="stroke:#000000; stroke-linecap:round; stroke-linejoin:round; stroke-width:2; stroke-opacity:0.1; fill:none" points="1615.91,1486.45 1615.91,47.2441 "/>
<polyline clip-path="url(#clip002)" style="stroke:#000000; stroke-linecap:round; stroke-linejoin:round; stroke-width:2; stroke-opacity:0.1; fill:none" points="1949,1486.45 1949,47.2441 "/>
<polyline clip-path="url(#clip002)" style="stroke:#000000; stroke-linecap:round; stroke-linejoin:round; stroke-width:2; stroke-opacity:0.1; fill:none" points="2282.09,1486.45 2282.09,47.2441 "/>
<polyline clip-path="url(#clip000)" style="stroke:#000000; stroke-linecap:round; stroke-linejoin:round; stroke-width:4; stroke-opacity:1; fill:none" points="193.936,1486.45 2352.76,1486.45 "/>
<polyline clip-path="url(#clip000)" style="stroke:#000000; stroke-linecap:round; stroke-linejoin:round; stroke-width:4; stroke-opacity:1; fill:none" points="283.548,1486.45 283.548,1467.55 "/>
<polyline clip-path="url(#clip000)" style="stroke:#000000; stroke-linecap:round; stroke-linejoin:round; stroke-width:4; stroke-opacity:1; fill:none" points="616.638,1486.45 616.638,1467.55 "/>
<polyline clip-path="url(#clip000)" style="stroke:#000000; stroke-linecap:round; stroke-linejoin:round; stroke-width:4; stroke-opacity:1; fill:none" points="949.728,1486.45 949.728,1467.55 "/>
<polyline clip-path="url(#clip000)" style="stroke:#000000; stroke-linecap:round; stroke-linejoin:round; stroke-width:4; stroke-opacity:1; fill:none" points="1282.82,1486.45 1282.82,1467.55 "/>
<polyline clip-path="url(#clip000)" style="stroke:#000000; stroke-linecap:round; stroke-linejoin:round; stroke-width:4; stroke-opacity:1; fill:none" points="1615.91,1486.45 1615.91,1467.55 "/>
<polyline clip-path="url(#clip000)" style="stroke:#000000; stroke-linecap:round; stroke-linejoin:round; stroke-width:4; stroke-opacity:1; fill:none" points="1949,1486.45 1949,1467.55 "/>
<polyline clip-path="url(#clip000)" style="stroke:#000000; stroke-linecap:round; stroke-linejoin:round; stroke-width:4; stroke-opacity:1; fill:none" points="2282.09,1486.45 2282.09,1467.55 "/>
<path clip-path="url(#clip000)" d="M230.574 1532.02 L260.249 1532.02 L260.249 1535.95 L230.574 1535.95 L230.574 1532.02 Z" fill="#000000" fill-rule="nonzero" fill-opacity="1" /><path clip-path="url(#clip000)" d="M271.152 1544.91 L278.791 1544.91 L278.791 1518.55 L270.481 1520.21 L270.481 1515.95 L278.745 1514.29 L283.421 1514.29 L283.421 1544.91 L291.059 1544.91 L291.059 1548.85 L271.152 1548.85 L271.152 1544.91 Z" fill="#000000" fill-rule="nonzero" fill-opacity="1" /><path clip-path="url(#clip000)" d="M300.504 1542.97 L305.388 1542.97 L305.388 1548.85 L300.504 1548.85 L300.504 1542.97 Z" fill="#000000" fill-rule="nonzero" fill-opacity="1" /><path clip-path="url(#clip000)" d="M315.619 1514.29 L333.976 1514.29 L333.976 1518.22 L319.902 1518.22 L319.902 1526.7 Q320.92 1526.35 321.939 1526.19 Q322.957 1526 323.976 1526 Q329.763 1526 333.142 1529.17 Q336.522 1532.34 336.522 1537.76 Q336.522 1543.34 333.05 1546.44 Q329.578 1549.52 323.258 1549.52 Q321.082 1549.52 318.814 1549.15 Q316.568 1548.78 314.161 1548.04 L314.161 1543.34 Q316.244 1544.47 318.467 1545.03 Q320.689 1545.58 323.166 1545.58 Q327.17 1545.58 329.508 1543.48 Q331.846 1541.37 331.846 1537.76 Q331.846 1534.15 329.508 1532.04 Q327.17 1529.94 323.166 1529.94 Q321.291 1529.94 319.416 1530.35 Q317.564 1530.77 315.619 1531.65 L315.619 1514.29 Z" fill="#000000" fill-rule="nonzero" fill-opacity="1" /><path clip-path="url(#clip000)" d="M563.166 1532.02 L592.842 1532.02 L592.842 1535.95 L563.166 1535.95 L563.166 1532.02 Z" fill="#000000" fill-rule="nonzero" fill-opacity="1" /><path clip-path="url(#clip000)" d="M603.744 1544.91 L611.383 1544.91 L611.383 1518.55 L603.073 1520.21 L603.073 1515.95 L611.337 1514.29 L616.013 1514.29 L616.013 1544.91 L623.652 1544.91 L623.652 1548.85 L603.744 1548.85 L603.744 1544.91 Z" fill="#000000" fill-rule="nonzero" fill-opacity="1" /><path clip-path="url(#clip000)" d="M633.096 1542.97 L637.98 1542.97 L637.98 1548.85 L633.096 1548.85 L633.096 1542.97 Z" fill="#000000" fill-rule="nonzero" fill-opacity="1" /><path clip-path="url(#clip000)" d="M658.165 1517.37 Q654.554 1517.37 652.725 1520.93 Q650.92 1524.47 650.92 1531.6 Q650.92 1538.71 652.725 1542.27 Q654.554 1545.82 658.165 1545.82 Q661.799 1545.82 663.605 1542.27 Q665.434 1538.71 665.434 1531.6 Q665.434 1524.47 663.605 1520.93 Q661.799 1517.37 658.165 1517.37 M658.165 1513.66 Q663.975 1513.66 667.031 1518.27 Q670.11 1522.85 670.11 1531.6 Q670.11 1540.33 667.031 1544.94 Q663.975 1549.52 658.165 1549.52 Q652.355 1549.52 649.276 1544.94 Q646.221 1540.33 646.221 1531.6 Q646.221 1522.85 649.276 1518.27 Q652.355 1513.66 658.165 1513.66 Z" fill="#000000" fill-rule="nonzero" fill-opacity="1" /><path clip-path="url(#clip000)" d="M896.753 1532.02 L926.429 1532.02 L926.429 1535.95 L896.753 1535.95 L896.753 1532.02 Z" fill="#000000" fill-rule="nonzero" fill-opacity="1" /><path clip-path="url(#clip000)" d="M946.522 1517.37 Q942.91 1517.37 941.082 1520.93 Q939.276 1524.47 939.276 1531.6 Q939.276 1538.71 941.082 1542.27 Q942.91 1545.82 946.522 1545.82 Q950.156 1545.82 951.961 1542.27 Q953.79 1538.71 953.79 1531.6 Q953.79 1524.47 951.961 1520.93 Q950.156 1517.37 946.522 1517.37 M946.522 1513.66 Q952.332 1513.66 955.387 1518.27 Q958.466 1522.85 958.466 1531.6 Q958.466 1540.33 955.387 1544.94 Q952.332 1549.52 946.522 1549.52 Q940.711 1549.52 937.633 1544.94 Q934.577 1540.33 934.577 1531.6 Q934.577 1522.85 937.633 1518.27 Q940.711 1513.66 946.522 1513.66 Z" fill="#000000" fill-rule="nonzero" fill-opacity="1" /><path clip-path="url(#clip000)" d="M966.683 1542.97 L971.568 1542.97 L971.568 1548.85 L966.683 1548.85 L966.683 1542.97 Z" fill="#000000" fill-rule="nonzero" fill-opacity="1" /><path clip-path="url(#clip000)" d="M981.799 1514.29 L1000.16 1514.29 L1000.16 1518.22 L986.082 1518.22 L986.082 1526.7 Q987.1 1526.35 988.119 1526.19 Q989.137 1526 990.156 1526 Q995.943 1526 999.322 1529.17 Q1002.7 1532.34 1002.7 1537.76 Q1002.7 1543.34 999.23 1546.44 Q995.757 1549.52 989.438 1549.52 Q987.262 1549.52 984.994 1549.15 Q982.748 1548.78 980.341 1548.04 L980.341 1543.34 Q982.424 1544.47 984.646 1545.03 Q986.869 1545.58 989.345 1545.58 Q993.35 1545.58 995.688 1543.48 Q998.026 1541.37 998.026 1537.76 Q998.026 1534.15 995.688 1532.04 Q993.35 1529.94 989.345 1529.94 Q987.47 1529.94 985.595 1530.35 Q983.744 1530.77 981.799 1531.65 L981.799 1514.29 Z" fill="#000000" fill-rule="nonzero" fill-opacity="1" /><path clip-path="url(#clip000)" d="M1260.2 1517.37 Q1256.59 1517.37 1254.76 1520.93 Q1252.96 1524.47 1252.96 1531.6 Q1252.96 1538.71 1254.76 1542.27 Q1256.59 1545.82 1260.2 1545.82 Q1263.84 1545.82 1265.64 1542.27 Q1267.47 1538.71 1267.47 1531.6 Q1267.47 1524.47 1265.64 1520.93 Q1263.84 1517.37 1260.2 1517.37 M1260.2 1513.66 Q1266.01 1513.66 1269.07 1518.27 Q1272.15 1522.85 1272.15 1531.6 Q1272.15 1540.33 1269.07 1544.94 Q1266.01 1549.52 1260.2 1549.52 Q1254.39 1549.52 1251.31 1544.94 Q1248.26 1540.33 1248.26 1531.6 Q1248.26 1522.85 1251.31 1518.27 Q1254.39 1513.66 1260.2 1513.66 Z" fill="#000000" fill-rule="nonzero" fill-opacity="1" /><path clip-path="url(#clip000)" d="M1280.36 1542.97 L1285.25 1542.97 L1285.25 1548.85 L1280.36 1548.85 L1280.36 1542.97 Z" fill="#000000" fill-rule="nonzero" fill-opacity="1" /><path clip-path="url(#clip000)" d="M1305.43 1517.37 Q1301.82 1517.37 1299.99 1520.93 Q1298.19 1524.47 1298.19 1531.6 Q1298.19 1538.71 1299.99 1542.27 Q1301.82 1545.82 1305.43 1545.82 Q1309.07 1545.82 1310.87 1542.27 Q1312.7 1538.71 1312.7 1531.6 Q1312.7 1524.47 1310.87 1520.93 Q1309.07 1517.37 1305.43 1517.37 M1305.43 1513.66 Q1311.24 1513.66 1314.3 1518.27 Q1317.38 1522.85 1317.38 1531.6 Q1317.38 1540.33 1314.3 1544.94 Q1311.24 1549.52 1305.43 1549.52 Q1299.62 1549.52 1296.54 1544.94 Q1293.49 1540.33 1293.49 1531.6 Q1293.49 1522.85 1296.54 1518.27 Q1299.62 1513.66 1305.43 1513.66 Z" fill="#000000" fill-rule="nonzero" fill-opacity="1" /><path clip-path="url(#clip000)" d="M1593.79 1517.37 Q1590.18 1517.37 1588.35 1520.93 Q1586.54 1524.47 1586.54 1531.6 Q1586.54 1538.71 1588.35 1542.27 Q1590.18 1545.82 1593.79 1545.82 Q1597.42 1545.82 1599.23 1542.27 Q1601.06 1538.71 1601.06 1531.6 Q1601.06 1524.47 1599.23 1520.93 Q1597.42 1517.37 1593.79 1517.37 M1593.79 1513.66 Q1599.6 1513.66 1602.65 1518.27 Q1605.73 1522.85 1605.73 1531.6 Q1605.73 1540.33 1602.65 1544.94 Q1599.6 1549.52 1593.79 1549.52 Q1587.98 1549.52 1584.9 1544.94 Q1581.84 1540.33 1581.84 1531.6 Q1581.84 1522.85 1584.9 1518.27 Q1587.98 1513.66 1593.79 1513.66 Z" fill="#000000" fill-rule="nonzero" fill-opacity="1" /><path clip-path="url(#clip000)" d="M1613.95 1542.97 L1618.84 1542.97 L1618.84 1548.85 L1613.95 1548.85 L1613.95 1542.97 Z" fill="#000000" fill-rule="nonzero" fill-opacity="1" /><path clip-path="url(#clip000)" d="M1629.07 1514.29 L1647.42 1514.29 L1647.42 1518.22 L1633.35 1518.22 L1633.35 1526.7 Q1634.37 1526.35 1635.39 1526.19 Q1636.4 1526 1637.42 1526 Q1643.21 1526 1646.59 1529.17 Q1649.97 1532.34 1649.97 1537.76 Q1649.97 1543.34 1646.5 1546.44 Q1643.03 1549.52 1636.71 1549.52 Q1634.53 1549.52 1632.26 1549.15 Q1630.02 1548.78 1627.61 1548.04 L1627.61 1543.34 Q1629.69 1544.47 1631.91 1545.03 Q1634.14 1545.58 1636.61 1545.58 Q1640.62 1545.58 1642.96 1543.48 Q1645.29 1541.37 1645.29 1537.76 Q1645.29 1534.15 1642.96 1532.04 Q1640.62 1529.94 1636.61 1529.94 Q1634.74 1529.94 1632.86 1530.35 Q1631.01 1530.77 1629.07 1531.65 L1629.07 1514.29 Z" fill="#000000" fill-rule="nonzero" fill-opacity="1" /><path clip-path="url(#clip000)" d="M1916.15 1544.91 L1923.79 1544.91 L1923.79 1518.55 L1915.48 1520.21 L1915.48 1515.95 L1923.74 1514.29 L1928.42 1514.29 L1928.42 1544.91 L1936.06 1544.91 L1936.06 1548.85 L1916.15 1548.85 L1916.15 1544.91 Z" fill="#000000" fill-rule="nonzero" fill-opacity="1" /><path clip-path="url(#clip000)" d="M1945.5 1542.97 L1950.39 1542.97 L1950.39 1548.85 L1945.5 1548.85 L1945.5 1542.97 Z" fill="#000000" fill-rule="nonzero" fill-opacity="1" /><path clip-path="url(#clip000)" d="M1970.57 1517.37 Q1966.96 1517.37 1965.13 1520.93 Q1963.33 1524.47 1963.33 1531.6 Q1963.33 1538.71 1965.13 1542.27 Q1966.96 1545.82 1970.57 1545.82 Q1974.21 1545.82 1976.01 1542.27 Q1977.84 1538.71 1977.84 1531.6 Q1977.84 1524.47 1976.01 1520.93 Q1974.21 1517.37 1970.57 1517.37 M1970.57 1513.66 Q1976.38 1513.66 1979.44 1518.27 Q1982.52 1522.85 1982.52 1531.6 Q1982.52 1540.33 1979.44 1544.94 Q1976.38 1549.52 1970.57 1549.52 Q1964.76 1549.52 1961.68 1544.94 Q1958.63 1540.33 1958.63 1531.6 Q1958.63 1522.85 1961.68 1518.27 Q1964.76 1513.66 1970.57 1513.66 Z" fill="#000000" fill-rule="nonzero" fill-opacity="1" /><path clip-path="url(#clip000)" d="M2249.74 1544.91 L2257.38 1544.91 L2257.38 1518.55 L2249.07 1520.21 L2249.07 1515.95 L2257.33 1514.29 L2262.01 1514.29 L2262.01 1544.91 L2269.64 1544.91 L2269.64 1548.85 L2249.74 1548.85 L2249.74 1544.91 Z" fill="#000000" fill-rule="nonzero" fill-opacity="1" /><path clip-path="url(#clip000)" d="M2279.09 1542.97 L2283.97 1542.97 L2283.97 1548.85 L2279.09 1548.85 L2279.09 1542.97 Z" fill="#000000" fill-rule="nonzero" fill-opacity="1" /><path clip-path="url(#clip000)" d="M2294.2 1514.29 L2312.56 1514.29 L2312.56 1518.22 L2298.49 1518.22 L2298.49 1526.7 Q2299.51 1526.35 2300.52 1526.19 Q2301.54 1526 2302.56 1526 Q2308.35 1526 2311.73 1529.17 Q2315.11 1532.34 2315.11 1537.76 Q2315.11 1543.34 2311.64 1546.44 Q2308.16 1549.52 2301.84 1549.52 Q2299.67 1549.52 2297.4 1549.15 Q2295.15 1548.78 2292.75 1548.04 L2292.75 1543.34 Q2294.83 1544.47 2297.05 1545.03 Q2299.27 1545.58 2301.75 1545.58 Q2305.76 1545.58 2308.09 1543.48 Q2310.43 1541.37 2310.43 1537.76 Q2310.43 1534.15 2308.09 1532.04 Q2305.76 1529.94 2301.75 1529.94 Q2299.88 1529.94 2298 1530.35 Q2296.15 1530.77 2294.2 1531.65 L2294.2 1514.29 Z" fill="#000000" fill-rule="nonzero" fill-opacity="1" /><polyline clip-path="url(#clip002)" style="stroke:#000000; stroke-linecap:round; stroke-linejoin:round; stroke-width:2; stroke-opacity:0.1; fill:none" points="193.936,1436.16 2352.76,1436.16 "/>
<polyline clip-path="url(#clip002)" style="stroke:#000000; stroke-linecap:round; stroke-linejoin:round; stroke-width:2; stroke-opacity:0.1; fill:none" points="193.936,1103.07 2352.76,1103.07 "/>
<polyline clip-path="url(#clip002)" style="stroke:#000000; stroke-linecap:round; stroke-linejoin:round; stroke-width:2; stroke-opacity:0.1; fill:none" points="193.936,769.981 2352.76,769.981 "/>
<polyline clip-path="url(#clip002)" style="stroke:#000000; stroke-linecap:round; stroke-linejoin:round; stroke-width:2; stroke-opacity:0.1; fill:none" points="193.936,436.891 2352.76,436.891 "/>
<polyline clip-path="url(#clip002)" style="stroke:#000000; stroke-linecap:round; stroke-linejoin:round; stroke-width:2; stroke-opacity:0.1; fill:none" points="193.936,103.802 2352.76,103.802 "/>
<polyline clip-path="url(#clip000)" style="stroke:#000000; stroke-linecap:round; stroke-linejoin:round; stroke-width:4; stroke-opacity:1; fill:none" points="193.936,1486.45 193.936,47.2441 "/>
<polyline clip-path="url(#clip000)" style="stroke:#000000; stroke-linecap:round; stroke-linejoin:round; stroke-width:4; stroke-opacity:1; fill:none" points="193.936,1436.16 212.834,1436.16 "/>
<polyline clip-path="url(#clip000)" style="stroke:#000000; stroke-linecap:round; stroke-linejoin:round; stroke-width:4; stroke-opacity:1; fill:none" points="193.936,1103.07 212.834,1103.07 "/>
<polyline clip-path="url(#clip000)" style="stroke:#000000; stroke-linecap:round; stroke-linejoin:round; stroke-width:4; stroke-opacity:1; fill:none" points="193.936,769.981 212.834,769.981 "/>
<polyline clip-path="url(#clip000)" style="stroke:#000000; stroke-linecap:round; stroke-linejoin:round; stroke-width:4; stroke-opacity:1; fill:none" points="193.936,436.891 212.834,436.891 "/>
<polyline clip-path="url(#clip000)" style="stroke:#000000; stroke-linecap:round; stroke-linejoin:round; stroke-width:4; stroke-opacity:1; fill:none" points="193.936,103.802 212.834,103.802 "/>
<path clip-path="url(#clip000)" d="M50.9921 1436.61 L80.6679 1436.61 L80.6679 1440.55 L50.9921 1440.55 L50.9921 1436.61 Z" fill="#000000" fill-rule="nonzero" fill-opacity="1" /><path clip-path="url(#clip000)" d="M91.5706 1449.51 L99.2095 1449.51 L99.2095 1423.14 L90.8993 1424.81 L90.8993 1420.55 L99.1632 1418.88 L103.839 1418.88 L103.839 1449.51 L111.478 1449.51 L111.478 1453.44 L91.5706 1453.44 L91.5706 1449.51 Z" fill="#000000" fill-rule="nonzero" fill-opacity="1" /><path clip-path="url(#clip000)" d="M120.922 1447.56 L125.807 1447.56 L125.807 1453.44 L120.922 1453.44 L120.922 1447.56 Z" fill="#000000" fill-rule="nonzero" fill-opacity="1" /><path clip-path="url(#clip000)" d="M145.992 1421.96 Q142.381 1421.96 140.552 1425.52 Q138.746 1429.07 138.746 1436.2 Q138.746 1443.3 140.552 1446.87 Q142.381 1450.41 145.992 1450.41 Q149.626 1450.41 151.431 1446.87 Q153.26 1443.3 153.26 1436.2 Q153.26 1429.07 151.431 1425.52 Q149.626 1421.96 145.992 1421.96 M145.992 1418.26 Q151.802 1418.26 154.857 1422.86 Q157.936 1427.45 157.936 1436.2 Q157.936 1444.92 154.857 1449.53 Q151.802 1454.11 145.992 1454.11 Q140.181 1454.11 137.103 1449.53 Q134.047 1444.92 134.047 1436.2 Q134.047 1427.45 137.103 1422.86 Q140.181 1418.26 145.992 1418.26 Z" fill="#000000" fill-rule="nonzero" fill-opacity="1" /><path clip-path="url(#clip000)" d="M51.9875 1103.52 L81.6633 1103.52 L81.6633 1107.46 L51.9875 1107.46 L51.9875 1103.52 Z" fill="#000000" fill-rule="nonzero" fill-opacity="1" /><path clip-path="url(#clip000)" d="M101.756 1088.87 Q98.1447 1088.87 96.316 1092.43 Q94.5104 1095.98 94.5104 1103.11 Q94.5104 1110.21 96.316 1113.78 Q98.1447 1117.32 101.756 1117.32 Q105.39 1117.32 107.196 1113.78 Q109.024 1110.21 109.024 1103.11 Q109.024 1095.98 107.196 1092.43 Q105.39 1088.87 101.756 1088.87 M101.756 1085.17 Q107.566 1085.17 110.621 1089.77 Q113.7 1094.36 113.7 1103.11 Q113.7 1111.83 110.621 1116.44 Q107.566 1121.02 101.756 1121.02 Q95.9456 1121.02 92.8669 1116.44 Q89.8114 1111.83 89.8114 1103.11 Q89.8114 1094.36 92.8669 1089.77 Q95.9456 1085.17 101.756 1085.17 Z" fill="#000000" fill-rule="nonzero" fill-opacity="1" /><path clip-path="url(#clip000)" d="M121.918 1114.47 L126.802 1114.47 L126.802 1120.35 L121.918 1120.35 L121.918 1114.47 Z" fill="#000000" fill-rule="nonzero" fill-opacity="1" /><path clip-path="url(#clip000)" d="M137.033 1085.79 L155.39 1085.79 L155.39 1089.73 L141.316 1089.73 L141.316 1098.2 Q142.334 1097.85 143.353 1097.69 Q144.371 1097.5 145.39 1097.5 Q151.177 1097.5 154.556 1100.68 Q157.936 1103.85 157.936 1109.26 Q157.936 1114.84 154.464 1117.94 Q150.992 1121.02 144.672 1121.02 Q142.496 1121.02 140.228 1120.65 Q137.982 1120.28 135.575 1119.54 L135.575 1114.84 Q137.658 1115.98 139.881 1116.53 Q142.103 1117.09 144.58 1117.09 Q148.584 1117.09 150.922 1114.98 Q153.26 1112.87 153.26 1109.26 Q153.26 1105.65 150.922 1103.55 Q148.584 1101.44 144.58 1101.44 Q142.705 1101.44 140.83 1101.86 Q138.978 1102.27 137.033 1103.15 L137.033 1085.79 Z" fill="#000000" fill-rule="nonzero" fill-opacity="1" /><path clip-path="url(#clip000)" d="M100.76 755.78 Q97.1493 755.78 95.3206 759.345 Q93.515 762.886 93.515 770.016 Q93.515 777.122 95.3206 780.687 Q97.1493 784.229 100.76 784.229 Q104.395 784.229 106.2 780.687 Q108.029 777.122 108.029 770.016 Q108.029 762.886 106.2 759.345 Q104.395 755.78 100.76 755.78 M100.76 752.076 Q106.571 752.076 109.626 756.683 Q112.705 761.266 112.705 770.016 Q112.705 778.743 109.626 783.349 Q106.571 787.933 100.76 787.933 Q94.9502 787.933 91.8715 783.349 Q88.816 778.743 88.816 770.016 Q88.816 761.266 91.8715 756.683 Q94.9502 752.076 100.76 752.076 Z" fill="#000000" fill-rule="nonzero" fill-opacity="1" /><path clip-path="url(#clip000)" d="M120.922 781.382 L125.807 781.382 L125.807 787.261 L120.922 787.261 L120.922 781.382 Z" fill="#000000" fill-rule="nonzero" fill-opacity="1" /><path clip-path="url(#clip000)" d="M145.992 755.78 Q142.381 755.78 140.552 759.345 Q138.746 762.886 138.746 770.016 Q138.746 777.122 140.552 780.687 Q142.381 784.229 145.992 784.229 Q149.626 784.229 151.431 780.687 Q153.26 777.122 153.26 770.016 Q153.26 762.886 151.431 759.345 Q149.626 755.78 145.992 755.78 M145.992 752.076 Q151.802 752.076 154.857 756.683 Q157.936 761.266 157.936 770.016 Q157.936 778.743 154.857 783.349 Q151.802 787.933 145.992 787.933 Q140.181 787.933 137.103 783.349 Q134.047 778.743 134.047 770.016 Q134.047 761.266 137.103 756.683 Q140.181 752.076 145.992 752.076 Z" fill="#000000" fill-rule="nonzero" fill-opacity="1" /><path clip-path="url(#clip000)" d="M101.756 422.69 Q98.1447 422.69 96.316 426.255 Q94.5104 429.797 94.5104 436.926 Q94.5104 444.033 96.316 447.597 Q98.1447 451.139 101.756 451.139 Q105.39 451.139 107.196 447.597 Q109.024 444.033 109.024 436.926 Q109.024 429.797 107.196 426.255 Q105.39 422.69 101.756 422.69 M101.756 418.986 Q107.566 418.986 110.621 423.593 Q113.7 428.176 113.7 436.926 Q113.7 445.653 110.621 450.259 Q107.566 454.843 101.756 454.843 Q95.9456 454.843 92.8669 450.259 Q89.8114 445.653 89.8114 436.926 Q89.8114 428.176 92.8669 423.593 Q95.9456 418.986 101.756 418.986 Z" fill="#000000" fill-rule="nonzero" fill-opacity="1" /><path clip-path="url(#clip000)" d="M121.918 448.292 L126.802 448.292 L126.802 454.171 L121.918 454.171 L121.918 448.292 Z" fill="#000000" fill-rule="nonzero" fill-opacity="1" /><path clip-path="url(#clip000)" d="M137.033 419.611 L155.39 419.611 L155.39 423.547 L141.316 423.547 L141.316 432.019 Q142.334 431.671 143.353 431.509 Q144.371 431.324 145.39 431.324 Q151.177 431.324 154.556 434.496 Q157.936 437.667 157.936 443.083 Q157.936 448.662 154.464 451.764 Q150.992 454.843 144.672 454.843 Q142.496 454.843 140.228 454.472 Q137.982 454.102 135.575 453.361 L135.575 448.662 Q137.658 449.796 139.881 450.352 Q142.103 450.908 144.58 450.908 Q148.584 450.908 150.922 448.801 Q153.26 446.695 153.26 443.083 Q153.26 439.472 150.922 437.366 Q148.584 435.259 144.58 435.259 Q142.705 435.259 140.83 435.676 Q138.978 436.093 137.033 436.972 L137.033 419.611 Z" fill="#000000" fill-rule="nonzero" fill-opacity="1" /><path clip-path="url(#clip000)" d="M91.5706 117.146 L99.2095 117.146 L99.2095 90.7808 L90.8993 92.4474 L90.8993 88.1882 L99.1632 86.5215 L103.839 86.5215 L103.839 117.146 L111.478 117.146 L111.478 121.082 L91.5706 121.082 L91.5706 117.146 Z" fill="#000000" fill-rule="nonzero" fill-opacity="1" /><path clip-path="url(#clip000)" d="M120.922 115.202 L125.807 115.202 L125.807 121.082 L120.922 121.082 L120.922 115.202 Z" fill="#000000" fill-rule="nonzero" fill-opacity="1" /><path clip-path="url(#clip000)" d="M145.992 89.6002 Q142.381 89.6002 140.552 93.165 Q138.746 96.7067 138.746 103.836 Q138.746 110.943 140.552 114.507 Q142.381 118.049 145.992 118.049 Q149.626 118.049 151.431 114.507 Q153.26 110.943 153.26 103.836 Q153.26 96.7067 151.431 93.165 Q149.626 89.6002 145.992 89.6002 M145.992 85.8965 Q151.802 85.8965 154.857 90.503 Q157.936 95.0863 157.936 103.836 Q157.936 112.563 154.857 117.17 Q151.802 121.753 145.992 121.753 Q140.181 121.753 137.103 117.17 Q134.047 112.563 134.047 103.836 Q134.047 95.0863 137.103 90.503 Q140.181 85.8965 145.992 85.8965 Z" fill="#000000" fill-rule="nonzero" fill-opacity="1" /><circle clip-path="url(#clip002)" cx="1729.9" cy="261.665" r="14.4" fill="#009af9" fill-rule="evenodd" fill-opacity="1" stroke="#000000" stroke-opacity="1" stroke-width="3.2"/>
<circle clip-path="url(#clip002)" cx="1098.69" cy="480.388" r="14.4" fill="#009af9" fill-rule="evenodd" fill-opacity="1" stroke="#000000" stroke-opacity="1" stroke-width="3.2"/>
<circle clip-path="url(#clip002)" cx="1613.49" cy="754.632" r="14.4" fill="#009af9" fill-rule="evenodd" fill-opacity="1" stroke="#000000" stroke-opacity="1" stroke-width="3.2"/>
<circle clip-path="url(#clip002)" cx="1491.77" cy="506.651" r="14.4" fill="#009af9" fill-rule="evenodd" fill-opacity="1" stroke="#000000" stroke-opacity="1" stroke-width="3.2"/>
<circle clip-path="url(#clip002)" cx="1611.53" cy="173.3" r="14.4" fill="#009af9" fill-rule="evenodd" fill-opacity="1" stroke="#000000" stroke-opacity="1" stroke-width="3.2"/>
<circle clip-path="url(#clip002)" cx="1807.51" cy="370.239" r="14.4" fill="#009af9" fill-rule="evenodd" fill-opacity="1" stroke="#000000" stroke-opacity="1" stroke-width="3.2"/>
<circle clip-path="url(#clip002)" cx="715.38" cy="411.47" r="14.4" fill="#009af9" fill-rule="evenodd" fill-opacity="1" stroke="#000000" stroke-opacity="1" stroke-width="3.2"/>
<circle clip-path="url(#clip002)" cx="806.544" cy="279.836" r="14.4" fill="#009af9" fill-rule="evenodd" fill-opacity="1" stroke="#000000" stroke-opacity="1" stroke-width="3.2"/>
<circle clip-path="url(#clip002)" cx="1844.78" cy="1120.1" r="14.4" fill="#009af9" fill-rule="evenodd" fill-opacity="1" stroke="#000000" stroke-opacity="1" stroke-width="3.2"/>
<circle clip-path="url(#clip002)" cx="1259.6" cy="1407.65" r="14.4" fill="#009af9" fill-rule="evenodd" fill-opacity="1" stroke="#000000" stroke-opacity="1" stroke-width="3.2"/>
<circle clip-path="url(#clip002)" cx="1273.97" cy="1101.41" r="14.4" fill="#009af9" fill-rule="evenodd" fill-opacity="1" stroke="#000000" stroke-opacity="1" stroke-width="3.2"/>
<circle clip-path="url(#clip002)" cx="1507.93" cy="1003.92" r="14.4" fill="#009af9" fill-rule="evenodd" fill-opacity="1" stroke="#000000" stroke-opacity="1" stroke-width="3.2"/>
<circle clip-path="url(#clip002)" cx="955.438" cy="213.954" r="14.4" fill="#009af9" fill-rule="evenodd" fill-opacity="1" stroke="#000000" stroke-opacity="1" stroke-width="3.2"/>
<circle clip-path="url(#clip002)" cx="996.911" cy="595.852" r="14.4" fill="#009af9" fill-rule="evenodd" fill-opacity="1" stroke="#000000" stroke-opacity="1" stroke-width="3.2"/>
<circle clip-path="url(#clip002)" cx="1034.1" cy="974.026" r="14.4" fill="#009af9" fill-rule="evenodd" fill-opacity="1" stroke="#000000" stroke-opacity="1" stroke-width="3.2"/>
<circle clip-path="url(#clip002)" cx="1482" cy="117.519" r="14.4" fill="#009af9" fill-rule="evenodd" fill-opacity="1" stroke="#000000" stroke-opacity="1" stroke-width="3.2"/>
<circle clip-path="url(#clip002)" cx="1525.23" cy="1390.05" r="14.4" fill="#009af9" fill-rule="evenodd" fill-opacity="1" stroke="#000000" stroke-opacity="1" stroke-width="3.2"/>
<circle clip-path="url(#clip002)" cx="1228.07" cy="441.929" r="14.4" fill="#009af9" fill-rule="evenodd" fill-opacity="1" stroke="#000000" stroke-opacity="1" stroke-width="3.2"/>
<circle clip-path="url(#clip002)" cx="1957.3" cy="620.342" r="14.4" fill="#009af9" fill-rule="evenodd" fill-opacity="1" stroke="#000000" stroke-opacity="1" stroke-width="3.2"/>
<circle clip-path="url(#clip002)" cx="1074.53" cy="141.124" r="14.4" fill="#009af9" fill-rule="evenodd" fill-opacity="1" stroke="#000000" stroke-opacity="1" stroke-width="3.2"/>
<circle clip-path="url(#clip002)" cx="677.996" cy="1065.36" r="14.4" fill="#009af9" fill-rule="evenodd" fill-opacity="1" stroke="#000000" stroke-opacity="1" stroke-width="3.2"/>
<circle clip-path="url(#clip002)" cx="1640.84" cy="1322.58" r="14.4" fill="#009af9" fill-rule="evenodd" fill-opacity="1" stroke="#000000" stroke-opacity="1" stroke-width="3.2"/>
<circle clip-path="url(#clip002)" cx="1746.88" cy="1229.49" r="14.4" fill="#009af9" fill-rule="evenodd" fill-opacity="1" stroke="#000000" stroke-opacity="1" stroke-width="3.2"/>
<circle clip-path="url(#clip002)" cx="1409.79" cy="1094.7" r="14.4" fill="#009af9" fill-rule="evenodd" fill-opacity="1" stroke="#000000" stroke-opacity="1" stroke-width="3.2"/>
<circle clip-path="url(#clip002)" cx="589.396" cy="808.815" r="14.4" fill="#009af9" fill-rule="evenodd" fill-opacity="1" stroke="#000000" stroke-opacity="1" stroke-width="3.2"/>
<circle clip-path="url(#clip002)" cx="878.631" cy="1278.31" r="14.4" fill="#009af9" fill-rule="evenodd" fill-opacity="1" stroke="#000000" stroke-opacity="1" stroke-width="3.2"/>
<circle clip-path="url(#clip002)" cx="766.541" cy="1190.47" r="14.4" fill="#009af9" fill-rule="evenodd" fill-opacity="1" stroke="#000000" stroke-opacity="1" stroke-width="3.2"/>
<circle clip-path="url(#clip002)" cx="1591.39" cy="898.619" r="14.4" fill="#009af9" fill-rule="evenodd" fill-opacity="1" stroke="#000000" stroke-opacity="1" stroke-width="3.2"/>
<circle clip-path="url(#clip002)" cx="1205.57" cy="87.9763" r="14.4" fill="#009af9" fill-rule="evenodd" fill-opacity="1" stroke="#000000" stroke-opacity="1" stroke-width="3.2"/>
<circle clip-path="url(#clip002)" cx="1576.65" cy="624.16" r="14.4" fill="#009af9" fill-rule="evenodd" fill-opacity="1" stroke="#000000" stroke-opacity="1" stroke-width="3.2"/>
<circle clip-path="url(#clip002)" cx="1927.69" cy="985.736" r="14.4" fill="#009af9" fill-rule="evenodd" fill-opacity="1" stroke="#000000" stroke-opacity="1" stroke-width="3.2"/>
<circle clip-path="url(#clip002)" cx="992.445" cy="1371.45" r="14.4" fill="#009af9" fill-rule="evenodd" fill-opacity="1" stroke="#000000" stroke-opacity="1" stroke-width="3.2"/>
<circle clip-path="url(#clip002)" cx="955.389" cy="861.182" r="14.4" fill="#009af9" fill-rule="evenodd" fill-opacity="1" stroke="#000000" stroke-opacity="1" stroke-width="3.2"/>
<circle clip-path="url(#clip002)" cx="1388.41" cy="1445.72" r="14.4" fill="#009af9" fill-rule="evenodd" fill-opacity="1" stroke="#000000" stroke-opacity="1" stroke-width="3.2"/>
<circle clip-path="url(#clip002)" cx="1349.52" cy="90.7403" r="14.4" fill="#009af9" fill-rule="evenodd" fill-opacity="1" stroke="#000000" stroke-opacity="1" stroke-width="3.2"/>
<circle clip-path="url(#clip002)" cx="663.654" cy="924.16" r="14.4" fill="#009af9" fill-rule="evenodd" fill-opacity="1" stroke="#000000" stroke-opacity="1" stroke-width="3.2"/>
<circle clip-path="url(#clip002)" cx="939.332" cy="716.488" r="14.4" fill="#009af9" fill-rule="evenodd" fill-opacity="1" stroke="#000000" stroke-opacity="1" stroke-width="3.2"/>
<circle clip-path="url(#clip002)" cx="1920.64" cy="754.513" r="14.4" fill="#009af9" fill-rule="evenodd" fill-opacity="1" stroke="#000000" stroke-opacity="1" stroke-width="3.2"/>
<circle clip-path="url(#clip002)" cx="1117.79" cy="1439.86" r="14.4" fill="#009af9" fill-rule="evenodd" fill-opacity="1" stroke="#000000" stroke-opacity="1" stroke-width="3.2"/>
<circle clip-path="url(#clip002)" cx="644.02" cy="531.664" r="14.4" fill="#009af9" fill-rule="evenodd" fill-opacity="1" stroke="#000000" stroke-opacity="1" stroke-width="3.2"/>
<circle clip-path="url(#clip002)" cx="1877.03" cy="500.217" r="14.4" fill="#009af9" fill-rule="evenodd" fill-opacity="1" stroke="#000000" stroke-opacity="1" stroke-width="3.2"/>
<circle clip-path="url(#clip002)" cx="1368.59" cy="449.405" r="14.4" fill="#009af9" fill-rule="evenodd" fill-opacity="1" stroke="#000000" stroke-opacity="1" stroke-width="3.2"/>
<circle clip-path="url(#clip002)" cx="1128.88" cy="1076.64" r="14.4" fill="#009af9" fill-rule="evenodd" fill-opacity="1" stroke="#000000" stroke-opacity="1" stroke-width="3.2"/>
<circle clip-path="url(#clip002)" cx="658.073" cy="669.91" r="14.4" fill="#009af9" fill-rule="evenodd" fill-opacity="1" stroke="#000000" stroke-opacity="1" stroke-width="3.2"/>
<polyline clip-path="url(#clip002)" style="stroke:#000000; stroke-linecap:round; stroke-linejoin:round; stroke-width:4; stroke-opacity:1; fill:none" points="1920.64,754.513 1957.3,620.342 "/>
<polyline clip-path="url(#clip002)" style="stroke:#000000; stroke-linecap:round; stroke-linejoin:round; stroke-width:4; stroke-opacity:1; fill:none" points="1920.64,754.513 1927.69,985.736 "/>
<polyline clip-path="url(#clip002)" style="stroke:#000000; stroke-linecap:round; stroke-linejoin:round; stroke-width:4; stroke-opacity:1; fill:none" points="1957.3,620.342 1877.03,500.217 "/>
<polyline clip-path="url(#clip002)" style="stroke:#000000; stroke-linecap:round; stroke-linejoin:round; stroke-width:4; stroke-opacity:1; fill:none" points="1877.03,500.217 1807.51,370.239 "/>
<polyline clip-path="url(#clip002)" style="stroke:#000000; stroke-linecap:round; stroke-linejoin:round; stroke-width:4; stroke-opacity:1; fill:none" points="1807.51,370.239 1729.9,261.665 "/>
<polyline clip-path="url(#clip002)" style="stroke:#000000; stroke-linecap:round; stroke-linejoin:round; stroke-width:4; stroke-opacity:1; fill:none" points="1729.9,261.665 1611.53,173.3 "/>
<polyline clip-path="url(#clip002)" style="stroke:#000000; stroke-linecap:round; stroke-linejoin:round; stroke-width:4; stroke-opacity:1; fill:none" points="1611.53,173.3 1482,117.519 "/>
<polyline clip-path="url(#clip002)" style="stroke:#000000; stroke-linecap:round; stroke-linejoin:round; stroke-width:4; stroke-opacity:1; fill:none" points="1482,117.519 1349.52,90.7403 "/>
<polyline clip-path="url(#clip002)" style="stroke:#000000; stroke-linecap:round; stroke-linejoin:round; stroke-width:4; stroke-opacity:1; fill:none" points="1349.52,90.7403 1205.57,87.9763 "/>
<polyline clip-path="url(#clip002)" style="stroke:#000000; stroke-linecap:round; stroke-linejoin:round; stroke-width:4; stroke-opacity:1; fill:none" points="1205.57,87.9763 1074.53,141.124 "/>
<polyline clip-path="url(#clip002)" style="stroke:#000000; stroke-linecap:round; stroke-linejoin:round; stroke-width:4; stroke-opacity:1; fill:none" points="1074.53,141.124 955.438,213.954 "/>
<polyline clip-path="url(#clip002)" style="stroke:#000000; stroke-linecap:round; stroke-linejoin:round; stroke-width:4; stroke-opacity:1; fill:none" points="955.438,213.954 806.544,279.836 "/>
<polyline clip-path="url(#clip002)" style="stroke:#000000; stroke-linecap:round; stroke-linejoin:round; stroke-width:4; stroke-opacity:1; fill:none" points="806.544,279.836 715.38,411.47 "/>
<polyline clip-path="url(#clip002)" style="stroke:#000000; stroke-linecap:round; stroke-linejoin:round; stroke-width:4; stroke-opacity:1; fill:none" points="715.38,411.47 644.02,531.664 "/>
<polyline clip-path="url(#clip002)" style="stroke:#000000; stroke-linecap:round; stroke-linejoin:round; stroke-width:4; stroke-opacity:1; fill:none" points="644.02,531.664 658.073,669.91 "/>
<polyline clip-path="url(#clip002)" style="stroke:#000000; stroke-linecap:round; stroke-linejoin:round; stroke-width:4; stroke-opacity:1; fill:none" points="658.073,669.91 589.396,808.815 "/>
<polyline clip-path="url(#clip002)" style="stroke:#000000; stroke-linecap:round; stroke-linejoin:round; stroke-width:4; stroke-opacity:1; fill:none" points="658.073,669.91 663.654,924.16 "/>
<polyline clip-path="url(#clip002)" style="stroke:#000000; stroke-linecap:round; stroke-linejoin:round; stroke-width:4; stroke-opacity:1; fill:none" points="589.396,808.815 663.654,924.16 "/>
<polyline clip-path="url(#clip002)" style="stroke:#000000; stroke-linecap:round; stroke-linejoin:round; stroke-width:4; stroke-opacity:1; fill:none" points="663.654,924.16 677.996,1065.36 "/>
<polyline clip-path="url(#clip002)" style="stroke:#000000; stroke-linecap:round; stroke-linejoin:round; stroke-width:4; stroke-opacity:1; fill:none" points="677.996,1065.36 766.541,1190.47 "/>
<polyline clip-path="url(#clip002)" style="stroke:#000000; stroke-linecap:round; stroke-linejoin:round; stroke-width:4; stroke-opacity:1; fill:none" points="766.541,1190.47 878.631,1278.31 "/>
<polyline clip-path="url(#clip002)" style="stroke:#000000; stroke-linecap:round; stroke-linejoin:round; stroke-width:4; stroke-opacity:1; fill:none" points="878.631,1278.31 992.445,1371.45 "/>
<polyline clip-path="url(#clip002)" style="stroke:#000000; stroke-linecap:round; stroke-linejoin:round; stroke-width:4; stroke-opacity:1; fill:none" points="992.445,1371.45 1117.79,1439.86 "/>
<polyline clip-path="url(#clip002)" style="stroke:#000000; stroke-linecap:round; stroke-linejoin:round; stroke-width:4; stroke-opacity:1; fill:none" points="1117.79,1439.86 1259.6,1407.65 "/>
<polyline clip-path="url(#clip002)" style="stroke:#000000; stroke-linecap:round; stroke-linejoin:round; stroke-width:4; stroke-opacity:1; fill:none" points="1259.6,1407.65 1388.41,1445.72 "/>
<polyline clip-path="url(#clip002)" style="stroke:#000000; stroke-linecap:round; stroke-linejoin:round; stroke-width:4; stroke-opacity:1; fill:none" points="1388.41,1445.72 1525.23,1390.05 "/>
<polyline clip-path="url(#clip002)" style="stroke:#000000; stroke-linecap:round; stroke-linejoin:round; stroke-width:4; stroke-opacity:1; fill:none" points="1525.23,1390.05 1640.84,1322.58 "/>
<polyline clip-path="url(#clip002)" style="stroke:#000000; stroke-linecap:round; stroke-linejoin:round; stroke-width:4; stroke-opacity:1; fill:none" points="1640.84,1322.58 1746.88,1229.49 "/>
<polyline clip-path="url(#clip002)" style="stroke:#000000; stroke-linecap:round; stroke-linejoin:round; stroke-width:4; stroke-opacity:1; fill:none" points="1746.88,1229.49 1844.78,1120.1 "/>
<polyline clip-path="url(#clip002)" style="stroke:#000000; stroke-linecap:round; stroke-linejoin:round; stroke-width:4; stroke-opacity:1; fill:none" points="1844.78,1120.1 1927.69,985.736 "/>
<polyline clip-path="url(#clip002)" style="stroke:#000000; stroke-linecap:round; stroke-linejoin:round; stroke-width:4; stroke-opacity:1; fill:none" points="1613.49,754.632 1576.65,624.16 "/>
<polyline clip-path="url(#clip002)" style="stroke:#000000; stroke-linecap:round; stroke-linejoin:round; stroke-width:4; stroke-opacity:1; fill:none" points="1613.49,754.632 1591.39,898.619 "/>
<polyline clip-path="url(#clip002)" style="stroke:#000000; stroke-linecap:round; stroke-linejoin:round; stroke-width:4; stroke-opacity:1; fill:none" points="1576.65,624.16 1491.77,506.651 "/>
<polyline clip-path="url(#clip002)" style="stroke:#000000; stroke-linecap:round; stroke-linejoin:round; stroke-width:4; stroke-opacity:1; fill:none" points="1491.77,506.651 1368.59,449.405 "/>
<polyline clip-path="url(#clip002)" style="stroke:#000000; stroke-linecap:round; stroke-linejoin:round; stroke-width:4; stroke-opacity:1; fill:none" points="1368.59,449.405 1228.07,441.929 "/>
<polyline clip-path="url(#clip002)" style="stroke:#000000; stroke-linecap:round; stroke-linejoin:round; stroke-width:4; stroke-opacity:1; fill:none" points="1228.07,441.929 1098.69,480.388 "/>
<polyline clip-path="url(#clip002)" style="stroke:#000000; stroke-linecap:round; stroke-linejoin:round; stroke-width:4; stroke-opacity:1; fill:none" points="1098.69,480.388 996.911,595.852 "/>
<polyline clip-path="url(#clip002)" style="stroke:#000000; stroke-linecap:round; stroke-linejoin:round; stroke-width:4; stroke-opacity:1; fill:none" points="996.911,595.852 939.332,716.488 "/>
<polyline clip-path="url(#clip002)" style="stroke:#000000; stroke-linecap:round; stroke-linejoin:round; stroke-width:4; stroke-opacity:1; fill:none" points="939.332,716.488 955.389,861.182 "/>
<polyline clip-path="url(#clip002)" style="stroke:#000000; stroke-linecap:round; stroke-linejoin:round; stroke-width:4; stroke-opacity:1; fill:none" points="955.389,861.182 1034.1,974.026 "/>
<polyline clip-path="url(#clip002)" style="stroke:#000000; stroke-linecap:round; stroke-linejoin:round; stroke-width:4; stroke-opacity:1; fill:none" points="1034.1,974.026 1128.88,1076.64 "/>
<polyline clip-path="url(#clip002)" style="stroke:#000000; stroke-linecap:round; stroke-linejoin:round; stroke-width:4; stroke-opacity:1; fill:none" points="1128.88,1076.64 1273.97,1101.41 "/>
<polyline clip-path="url(#clip002)" style="stroke:#000000; stroke-linecap:round; stroke-linejoin:round; stroke-width:4; stroke-opacity:1; fill:none" points="1273.97,1101.41 1409.79,1094.7 "/>
<polyline clip-path="url(#clip002)" style="stroke:#000000; stroke-linecap:round; stroke-linejoin:round; stroke-width:4; stroke-opacity:1; fill:none" points="1273.97,1101.41 1507.93,1003.92 "/>
<polyline clip-path="url(#clip002)" style="stroke:#000000; stroke-linecap:round; stroke-linejoin:round; stroke-width:4; stroke-opacity:1; fill:none" points="1409.79,1094.7 1507.93,1003.92 "/>
<polyline clip-path="url(#clip002)" style="stroke:#000000; stroke-linecap:round; stroke-linejoin:round; stroke-width:4; stroke-opacity:1; fill:none" points="1507.93,1003.92 1591.39,898.619 "/>
</svg>
