<?xml version="1.0" encoding="utf-8"?>
<svg xmlns="http://www.w3.org/2000/svg" xmlns:xlink="http://www.w3.org/1999/xlink" width="600" height="400" viewBox="0 0 2400 1600">
<defs>
  <clipPath id="clip290">
    <rect x="0" y="0" width="2400" height="1600"/>
  </clipPath>
</defs>
<path clip-path="url(#clip290)" d="M0 1600 L2400 1600 L2400 0 L0 0  Z" fill="#ffffff" fill-rule="evenodd" fill-opacity="1"/>
<defs>
  <clipPath id="clip291">
    <rect x="480" y="0" width="1681" height="1600"/>
  </clipPath>
</defs>
<path clip-path="url(#clip290)" d="M193.936 1486.45 L2352.76 1486.45 L2352.76 47.2441 L193.936 47.2441  Z" fill="#ffffff" fill-rule="evenodd" fill-opacity="1"/>
<defs>
  <clipPath id="clip292">
    <rect x="193" y="47" width="2160" height="1440"/>
  </clipPath>
</defs>
<polyline clip-path="url(#clip292)" style="stroke:#000000; stroke-linecap:round; stroke-linejoin:round; stroke-width:2; stroke-opacity:0.1; fill:none" points="252.854,1486.45 252.854,47.2441 "/>
<polyline clip-path="url(#clip292)" style="stroke:#000000; stroke-linecap:round; stroke-linejoin:round; stroke-width:2; stroke-opacity:0.1; fill:none" points="586.561,1486.45 586.561,47.2441 "/>
<polyline clip-path="url(#clip292)" style="stroke:#000000; stroke-linecap:round; stroke-linejoin:round; stroke-width:2; stroke-opacity:0.1; fill:none" points="920.268,1486.45 920.268,47.2441 "/>
<polyline clip-path="url(#clip292)" style="stroke:#000000; stroke-linecap:round; stroke-linejoin:round; stroke-width:2; stroke-opacity:0.1; fill:none" points="1253.97,1486.45 1253.97,47.2441 "/>
<polyline clip-path="url(#clip292)" style="stroke:#000000; stroke-linecap:round; stroke-linejoin:round; stroke-width:2; stroke-opacity:0.1; fill:none" points="1587.68,1486.45 1587.68,47.2441 "/>
<polyline clip-path="url(#clip292)" style="stroke:#000000; stroke-linecap:round; stroke-linejoin:round; stroke-width:2; stroke-opacity:0.1; fill:none" points="1921.39,1486.45 1921.39,47.2441 "/>
<polyline clip-path="url(#clip292)" style="stroke:#000000; stroke-linecap:round; stroke-linejoin:round; stroke-width:2; stroke-opacity:0.1; fill:none" points="2255.1,1486.45 2255.1,47.2441 "/>
<polyline clip-path="url(#clip290)" style="stroke:#000000; stroke-linecap:round; stroke-linejoin:round; stroke-width:4; stroke-opacity:1; fill:none" points="193.936,1486.45 2352.76,1486.45 "/>
<polyline clip-path="url(#clip290)" style="stroke:#000000; stroke-linecap:round; stroke-linejoin:round; stroke-width:4; stroke-opacity:1; fill:none" points="252.854,1486.45 252.854,1467.55 "/>
<polyline clip-path="url(#clip290)" style="stroke:#000000; stroke-linecap:round; stroke-linejoin:round; stroke-width:4; stroke-opacity:1; fill:none" points="586.561,1486.45 586.561,1467.55 "/>
<polyline clip-path="url(#clip290)" style="stroke:#000000; stroke-linecap:round; stroke-linejoin:round; stroke-width:4; stroke-opacity:1; fill:none" points="920.268,1486.45 920.268,1467.55 "/>
<polyline clip-path="url(#clip290)" style="stroke:#000000; stroke-linecap:round; stroke-linejoin:round; stroke-width:4; stroke-opacity:1; fill:none" points="1253.97,1486.45 1253.97,1467.55 "/>
<polyline clip-path="url(#clip290)" style="stroke:#000000; stroke-linecap:round; stroke-linejoin:round; stroke-width:4; stroke-opacity:1; fill:none" points="1587.68,1486.45 1587.68,1467.55 "/>
<polyline clip-path="url(#clip290)" style="stroke:#000000; stroke-linecap:round; stroke-linejoin:round; stroke-width:4; stroke-opacity:1; fill:none" points="1921.39,1486.45 1921.39,1467.55 "/>
<polyline clip-path="url(#clip290)" style="stroke:#000000; stroke-linecap:round; stroke-linejoin:round; stroke-width:4; stroke-opacity:1; fill:none" points="2255.1,1486.45 2255.1,1467.55 "/>
<path clip-path="url(#clip290)" d="M199.88 1532.02 L229.556 1532.02 L229.556 1535.95 L199.88 1535.95 L199.88 1532.02 Z" fill="#000000" fill-rule="nonzero" fill-opacity="1" /><path clip-path="url(#clip290)" d="M240.458 1544.91 L248.097 1544.91 L248.097 1518.55 L239.787 1520.21 L239.787 1515.95 L248.051 1514.29 L252.727 1514.29 L252.727 1544.91 L260.366 1544.91 L260.366 1548.85 L240.458 1548.85 L240.458 1544.91 Z" fill="#000000" fill-rule="nonzero" fill-opacity="1" /><path clip-path="url(#clip290)" d="M269.81 1542.97 L274.694 1542.97 L274.694 1548.85 L269.81 1548.85 L269.81 1542.97 Z" fill="#000000" fill-rule="nonzero" fill-opacity="1" /><path clip-path="url(#clip290)" d="M284.926 1514.29 L303.282 1514.29 L303.282 1518.22 L289.208 1518.22 L289.208 1526.7 Q290.227 1526.35 291.245 1526.19 Q292.264 1526 293.282 1526 Q299.069 1526 302.449 1529.17 Q305.828 1532.34 305.828 1537.76 Q305.828 1543.34 302.356 1546.44 Q298.884 1549.52 292.565 1549.52 Q290.389 1549.52 288.12 1549.15 Q285.875 1548.78 283.467 1548.04 L283.467 1543.34 Q285.551 1544.47 287.773 1545.03 Q289.995 1545.58 292.472 1545.58 Q296.477 1545.58 298.815 1543.48 Q301.152 1541.37 301.152 1537.76 Q301.152 1534.15 298.815 1532.04 Q296.477 1529.94 292.472 1529.94 Q290.597 1529.94 288.722 1530.35 Q286.87 1530.77 284.926 1531.65 L284.926 1514.29 Z" fill="#000000" fill-rule="nonzero" fill-opacity="1" /><path clip-path="url(#clip290)" d="M533.089 1532.02 L562.765 1532.02 L562.765 1535.95 L533.089 1535.95 L533.089 1532.02 Z" fill="#000000" fill-rule="nonzero" fill-opacity="1" /><path clip-path="url(#clip290)" d="M573.668 1544.91 L581.306 1544.91 L581.306 1518.55 L572.996 1520.21 L572.996 1515.95 L581.26 1514.29 L585.936 1514.29 L585.936 1544.91 L593.575 1544.91 L593.575 1548.85 L573.668 1548.85 L573.668 1544.91 Z" fill="#000000" fill-rule="nonzero" fill-opacity="1" /><path clip-path="url(#clip290)" d="M603.019 1542.97 L607.903 1542.97 L607.903 1548.85 L603.019 1548.85 L603.019 1542.97 Z" fill="#000000" fill-rule="nonzero" fill-opacity="1" /><path clip-path="url(#clip290)" d="M628.089 1517.37 Q624.477 1517.37 622.649 1520.93 Q620.843 1524.47 620.843 1531.6 Q620.843 1538.71 622.649 1542.27 Q624.477 1545.82 628.089 1545.82 Q631.723 1545.82 633.528 1542.27 Q635.357 1538.71 635.357 1531.6 Q635.357 1524.47 633.528 1520.93 Q631.723 1517.37 628.089 1517.37 M628.089 1513.66 Q633.899 1513.66 636.954 1518.27 Q640.033 1522.85 640.033 1531.6 Q640.033 1540.33 636.954 1544.94 Q633.899 1549.52 628.089 1549.52 Q622.278 1549.52 619.2 1544.94 Q616.144 1540.33 616.144 1531.6 Q616.144 1522.85 619.2 1518.27 Q622.278 1513.66 628.089 1513.66 Z" fill="#000000" fill-rule="nonzero" fill-opacity="1" /><path clip-path="url(#clip290)" d="M867.294 1532.02 L896.969 1532.02 L896.969 1535.95 L867.294 1535.95 L867.294 1532.02 Z" fill="#000000" fill-rule="nonzero" fill-opacity="1" /><path clip-path="url(#clip290)" d="M917.062 1517.37 Q913.451 1517.37 911.622 1520.93 Q909.817 1524.47 909.817 1531.6 Q909.817 1538.71 911.622 1542.27 Q913.451 1545.82 917.062 1545.82 Q920.696 1545.82 922.502 1542.27 Q924.33 1538.71 924.33 1531.6 Q924.33 1524.47 922.502 1520.93 Q920.696 1517.37 917.062 1517.37 M917.062 1513.66 Q922.872 1513.66 925.928 1518.27 Q929.006 1522.85 929.006 1531.6 Q929.006 1540.33 925.928 1544.94 Q922.872 1549.52 917.062 1549.52 Q911.252 1549.52 908.173 1544.94 Q905.117 1540.33 905.117 1531.6 Q905.117 1522.85 908.173 1518.27 Q911.252 1513.66 917.062 1513.66 Z" fill="#000000" fill-rule="nonzero" fill-opacity="1" /><path clip-path="url(#clip290)" d="M937.224 1542.97 L942.108 1542.97 L942.108 1548.85 L937.224 1548.85 L937.224 1542.97 Z" fill="#000000" fill-rule="nonzero" fill-opacity="1" /><path clip-path="url(#clip290)" d="M952.339 1514.29 L970.696 1514.29 L970.696 1518.22 L956.622 1518.22 L956.622 1526.7 Q957.64 1526.35 958.659 1526.19 Q959.677 1526 960.696 1526 Q966.483 1526 969.862 1529.17 Q973.242 1532.34 973.242 1537.76 Q973.242 1543.34 969.77 1546.44 Q966.298 1549.52 959.978 1549.52 Q957.802 1549.52 955.534 1549.15 Q953.289 1548.78 950.881 1548.04 L950.881 1543.34 Q952.964 1544.47 955.187 1545.03 Q957.409 1545.58 959.886 1545.58 Q963.89 1545.58 966.228 1543.48 Q968.566 1541.37 968.566 1537.76 Q968.566 1534.15 966.228 1532.04 Q963.89 1529.94 959.886 1529.94 Q958.011 1529.94 956.136 1530.35 Q954.284 1530.77 952.339 1531.65 L952.339 1514.29 Z" fill="#000000" fill-rule="nonzero" fill-opacity="1" /><path clip-path="url(#clip290)" d="M1231.36 1517.37 Q1227.75 1517.37 1225.92 1520.93 Q1224.11 1524.47 1224.11 1531.6 Q1224.11 1538.71 1225.92 1542.27 Q1227.75 1545.82 1231.36 1545.82 Q1234.99 1545.82 1236.8 1542.27 Q1238.63 1538.71 1238.63 1531.6 Q1238.63 1524.47 1236.8 1520.93 Q1234.99 1517.37 1231.36 1517.37 M1231.36 1513.66 Q1237.17 1513.66 1240.22 1518.27 Q1243.3 1522.85 1243.3 1531.6 Q1243.3 1540.33 1240.22 1544.94 Q1237.17 1549.52 1231.36 1549.52 Q1225.55 1549.52 1222.47 1544.94 Q1219.41 1540.33 1219.41 1531.6 Q1219.41 1522.85 1222.47 1518.27 Q1225.55 1513.66 1231.36 1513.66 Z" fill="#000000" fill-rule="nonzero" fill-opacity="1" /><path clip-path="url(#clip290)" d="M1251.52 1542.97 L1256.41 1542.97 L1256.41 1548.85 L1251.52 1548.85 L1251.52 1542.97 Z" fill="#000000" fill-rule="nonzero" fill-opacity="1" /><path clip-path="url(#clip290)" d="M1276.59 1517.37 Q1272.98 1517.37 1271.15 1520.93 Q1269.34 1524.47 1269.34 1531.6 Q1269.34 1538.71 1271.15 1542.27 Q1272.98 1545.82 1276.59 1545.82 Q1280.22 1545.82 1282.03 1542.27 Q1283.86 1538.71 1283.86 1531.6 Q1283.86 1524.47 1282.03 1520.93 Q1280.22 1517.37 1276.59 1517.37 M1276.59 1513.66 Q1282.4 1513.66 1285.46 1518.27 Q1288.53 1522.85 1288.53 1531.6 Q1288.53 1540.33 1285.46 1544.94 Q1282.4 1549.52 1276.59 1549.52 Q1270.78 1549.52 1267.7 1544.94 Q1264.65 1540.33 1264.65 1531.6 Q1264.65 1522.85 1267.7 1518.27 Q1270.78 1513.66 1276.59 1513.66 Z" fill="#000000" fill-rule="nonzero" fill-opacity="1" /><path clip-path="url(#clip290)" d="M1565.56 1517.37 Q1561.95 1517.37 1560.12 1520.93 Q1558.32 1524.47 1558.32 1531.6 Q1558.32 1538.71 1560.12 1542.27 Q1561.95 1545.82 1565.56 1545.82 Q1569.2 1545.82 1571 1542.27 Q1572.83 1538.71 1572.83 1531.6 Q1572.83 1524.47 1571 1520.93 Q1569.2 1517.37 1565.56 1517.37 M1565.56 1513.66 Q1571.37 1513.66 1574.43 1518.27 Q1577.51 1522.85 1577.51 1531.6 Q1577.51 1540.33 1574.43 1544.94 Q1571.37 1549.52 1565.56 1549.52 Q1559.75 1549.52 1556.67 1544.94 Q1553.62 1540.33 1553.62 1531.6 Q1553.62 1522.85 1556.67 1518.27 Q1559.75 1513.66 1565.56 1513.66 Z" fill="#000000" fill-rule="nonzero" fill-opacity="1" /><path clip-path="url(#clip290)" d="M1585.73 1542.97 L1590.61 1542.97 L1590.61 1548.85 L1585.73 1548.85 L1585.73 1542.97 Z" fill="#000000" fill-rule="nonzero" fill-opacity="1" /><path clip-path="url(#clip290)" d="M1600.84 1514.29 L1619.2 1514.29 L1619.2 1518.22 L1605.12 1518.22 L1605.12 1526.7 Q1606.14 1526.35 1607.16 1526.19 Q1608.18 1526 1609.2 1526 Q1614.98 1526 1618.36 1529.17 Q1621.74 1532.34 1621.74 1537.76 Q1621.74 1543.34 1618.27 1546.44 Q1614.8 1549.52 1608.48 1549.52 Q1606.3 1549.52 1604.04 1549.15 Q1601.79 1548.78 1599.38 1548.04 L1599.38 1543.34 Q1601.47 1544.47 1603.69 1545.03 Q1605.91 1545.58 1608.39 1545.58 Q1612.39 1545.58 1614.73 1543.48 Q1617.07 1541.37 1617.07 1537.76 Q1617.07 1534.15 1614.73 1532.04 Q1612.39 1529.94 1608.39 1529.94 Q1606.51 1529.94 1604.64 1530.35 Q1602.79 1530.77 1600.84 1531.65 L1600.84 1514.29 Z" fill="#000000" fill-rule="nonzero" fill-opacity="1" /><path clip-path="url(#clip290)" d="M1888.54 1544.91 L1896.18 1544.91 L1896.18 1518.55 L1887.87 1520.21 L1887.87 1515.95 L1896.13 1514.29 L1900.81 1514.29 L1900.81 1544.91 L1908.45 1544.91 L1908.45 1548.85 L1888.54 1548.85 L1888.54 1544.91 Z" fill="#000000" fill-rule="nonzero" fill-opacity="1" /><path clip-path="url(#clip290)" d="M1917.89 1542.97 L1922.78 1542.97 L1922.78 1548.85 L1917.89 1548.85 L1917.89 1542.97 Z" fill="#000000" fill-rule="nonzero" fill-opacity="1" /><path clip-path="url(#clip290)" d="M1942.96 1517.37 Q1939.35 1517.37 1937.52 1520.93 Q1935.72 1524.47 1935.72 1531.6 Q1935.72 1538.71 1937.52 1542.27 Q1939.35 1545.82 1942.96 1545.82 Q1946.6 1545.82 1948.4 1542.27 Q1950.23 1538.71 1950.23 1531.6 Q1950.23 1524.47 1948.4 1520.93 Q1946.6 1517.37 1942.96 1517.37 M1942.96 1513.66 Q1948.77 1513.66 1951.83 1518.27 Q1954.91 1522.85 1954.91 1531.6 Q1954.91 1540.33 1951.83 1544.94 Q1948.77 1549.52 1942.96 1549.52 Q1937.15 1549.52 1934.07 1544.94 Q1931.02 1540.33 1931.02 1531.6 Q1931.02 1522.85 1934.07 1518.27 Q1937.15 1513.66 1942.96 1513.66 Z" fill="#000000" fill-rule="nonzero" fill-opacity="1" /><path clip-path="url(#clip290)" d="M2222.75 1544.91 L2230.38 1544.91 L2230.38 1518.55 L2222.07 1520.21 L2222.07 1515.95 L2230.34 1514.29 L2235.01 1514.29 L2235.01 1544.91 L2242.65 1544.91 L2242.65 1548.85 L2222.75 1548.85 L2222.75 1544.91 Z" fill="#000000" fill-rule="nonzero" fill-opacity="1" /><path clip-path="url(#clip290)" d="M2252.1 1542.97 L2256.98 1542.97 L2256.98 1548.85 L2252.1 1548.85 L2252.1 1542.97 Z" fill="#000000" fill-rule="nonzero" fill-opacity="1" /><path clip-path="url(#clip290)" d="M2267.21 1514.29 L2285.57 1514.29 L2285.57 1518.22 L2271.5 1518.22 L2271.5 1526.7 Q2272.51 1526.35 2273.53 1526.19 Q2274.55 1526 2275.57 1526 Q2281.36 1526 2284.74 1529.17 Q2288.12 1532.34 2288.12 1537.76 Q2288.12 1543.34 2284.64 1546.44 Q2281.17 1549.52 2274.85 1549.52 Q2272.68 1549.52 2270.41 1549.15 Q2268.16 1548.78 2265.75 1548.04 L2265.75 1543.34 Q2267.84 1544.47 2270.06 1545.03 Q2272.28 1545.58 2274.76 1545.58 Q2278.76 1545.58 2281.1 1543.48 Q2283.44 1541.37 2283.44 1537.76 Q2283.44 1534.15 2281.1 1532.04 Q2278.76 1529.94 2274.76 1529.94 Q2272.88 1529.94 2271.01 1530.35 Q2269.16 1530.77 2267.21 1531.65 L2267.21 1514.29 Z" fill="#000000" fill-rule="nonzero" fill-opacity="1" /><polyline clip-path="url(#clip292)" style="stroke:#000000; stroke-linecap:round; stroke-linejoin:round; stroke-width:2; stroke-opacity:0.1; fill:none" points="193.936,1419.68 2352.76,1419.68 "/>
<polyline clip-path="url(#clip292)" style="stroke:#000000; stroke-linecap:round; stroke-linejoin:round; stroke-width:2; stroke-opacity:0.1; fill:none" points="193.936,1085.97 2352.76,1085.97 "/>
<polyline clip-path="url(#clip292)" style="stroke:#000000; stroke-linecap:round; stroke-linejoin:round; stroke-width:2; stroke-opacity:0.1; fill:none" points="193.936,752.264 2352.76,752.264 "/>
<polyline clip-path="url(#clip292)" style="stroke:#000000; stroke-linecap:round; stroke-linejoin:round; stroke-width:2; stroke-opacity:0.1; fill:none" points="193.936,418.557 2352.76,418.557 "/>
<polyline clip-path="url(#clip292)" style="stroke:#000000; stroke-linecap:round; stroke-linejoin:round; stroke-width:2; stroke-opacity:0.1; fill:none" points="193.936,84.85 2352.76,84.85 "/>
<polyline clip-path="url(#clip290)" style="stroke:#000000; stroke-linecap:round; stroke-linejoin:round; stroke-width:4; stroke-opacity:1; fill:none" points="193.936,1486.45 193.936,47.2441 "/>
<polyline clip-path="url(#clip290)" style="stroke:#000000; stroke-linecap:round; stroke-linejoin:round; stroke-width:4; stroke-opacity:1; fill:none" points="193.936,1419.68 212.834,1419.68 "/>
<polyline clip-path="url(#clip290)" style="stroke:#000000; stroke-linecap:round; stroke-linejoin:round; stroke-width:4; stroke-opacity:1; fill:none" points="193.936,1085.97 212.834,1085.97 "/>
<polyline clip-path="url(#clip290)" style="stroke:#000000; stroke-linecap:round; stroke-linejoin:round; stroke-width:4; stroke-opacity:1; fill:none" points="193.936,752.264 212.834,752.264 "/>
<polyline clip-path="url(#clip290)" style="stroke:#000000; stroke-linecap:round; stroke-linejoin:round; stroke-width:4; stroke-opacity:1; fill:none" points="193.936,418.557 212.834,418.557 "/>
<polyline clip-path="url(#clip290)" style="stroke:#000000; stroke-linecap:round; stroke-linejoin:round; stroke-width:4; stroke-opacity:1; fill:none" points="193.936,84.85 212.834,84.85 "/>
<path clip-path="url(#clip290)" d="M50.9921 1420.13 L80.6679 1420.13 L80.6679 1424.06 L50.9921 1424.06 L50.9921 1420.13 Z" fill="#000000" fill-rule="nonzero" fill-opacity="1" /><path clip-path="url(#clip290)" d="M91.5706 1433.02 L99.2095 1433.02 L99.2095 1406.66 L90.8993 1408.32 L90.8993 1404.06 L99.1632 1402.4 L103.839 1402.4 L103.839 1433.02 L111.478 1433.02 L111.478 1436.96 L91.5706 1436.96 L91.5706 1433.02 Z" fill="#000000" fill-rule="nonzero" fill-opacity="1" /><path clip-path="url(#clip290)" d="M120.922 1431.08 L125.807 1431.08 L125.807 1436.96 L120.922 1436.96 L120.922 1431.08 Z" fill="#000000" fill-rule="nonzero" fill-opacity="1" /><path clip-path="url(#clip290)" d="M145.992 1405.48 Q142.381 1405.48 140.552 1409.04 Q138.746 1412.58 138.746 1419.71 Q138.746 1426.82 140.552 1430.38 Q142.381 1433.93 145.992 1433.93 Q149.626 1433.93 151.431 1430.38 Q153.26 1426.82 153.26 1419.71 Q153.26 1412.58 151.431 1409.04 Q149.626 1405.48 145.992 1405.48 M145.992 1401.77 Q151.802 1401.77 154.857 1406.38 Q157.936 1410.96 157.936 1419.71 Q157.936 1428.44 154.857 1433.05 Q151.802 1437.63 145.992 1437.63 Q140.181 1437.63 137.103 1433.05 Q134.047 1428.44 134.047 1419.71 Q134.047 1410.96 137.103 1406.38 Q140.181 1401.77 145.992 1401.77 Z" fill="#000000" fill-rule="nonzero" fill-opacity="1" /><path clip-path="url(#clip290)" d="M51.9875 1086.42 L81.6633 1086.42 L81.6633 1090.36 L51.9875 1090.36 L51.9875 1086.42 Z" fill="#000000" fill-rule="nonzero" fill-opacity="1" /><path clip-path="url(#clip290)" d="M101.756 1071.77 Q98.1447 1071.77 96.316 1075.33 Q94.5104 1078.88 94.5104 1086.01 Q94.5104 1093.11 96.316 1096.68 Q98.1447 1100.22 101.756 1100.22 Q105.39 1100.22 107.196 1096.68 Q109.024 1093.11 109.024 1086.01 Q109.024 1078.88 107.196 1075.33 Q105.39 1071.77 101.756 1071.77 M101.756 1068.07 Q107.566 1068.07 110.621 1072.67 Q113.7 1077.26 113.7 1086.01 Q113.7 1094.73 110.621 1099.34 Q107.566 1103.92 101.756 1103.92 Q95.9456 1103.92 92.8669 1099.34 Q89.8114 1094.73 89.8114 1086.01 Q89.8114 1077.26 92.8669 1072.67 Q95.9456 1068.07 101.756 1068.07 Z" fill="#000000" fill-rule="nonzero" fill-opacity="1" /><path clip-path="url(#clip290)" d="M121.918 1097.37 L126.802 1097.37 L126.802 1103.25 L121.918 1103.25 L121.918 1097.37 Z" fill="#000000" fill-rule="nonzero" fill-opacity="1" /><path clip-path="url(#clip290)" d="M137.033 1068.69 L155.39 1068.69 L155.39 1072.63 L141.316 1072.63 L141.316 1081.1 Q142.334 1080.75 143.353 1080.59 Q144.371 1080.4 145.39 1080.4 Q151.177 1080.4 154.556 1083.57 Q157.936 1086.75 157.936 1092.16 Q157.936 1097.74 154.464 1100.84 Q150.992 1103.92 144.672 1103.92 Q142.496 1103.92 140.228 1103.55 Q137.982 1103.18 135.575 1102.44 L135.575 1097.74 Q137.658 1098.88 139.881 1099.43 Q142.103 1099.99 144.58 1099.99 Q148.584 1099.99 150.922 1097.88 Q153.26 1095.77 153.26 1092.16 Q153.26 1088.55 150.922 1086.45 Q148.584 1084.34 144.58 1084.34 Q142.705 1084.34 140.83 1084.76 Q138.978 1085.17 137.033 1086.05 L137.033 1068.69 Z" fill="#000000" fill-rule="nonzero" fill-opacity="1" /><path clip-path="url(#clip290)" d="M100.76 738.062 Q97.1493 738.062 95.3206 741.627 Q93.515 745.169 93.515 752.298 Q93.515 759.405 95.3206 762.97 Q97.1493 766.511 100.76 766.511 Q104.395 766.511 106.2 762.97 Q108.029 759.405 108.029 752.298 Q108.029 745.169 106.2 741.627 Q104.395 738.062 100.76 738.062 M100.76 734.359 Q106.571 734.359 109.626 738.965 Q112.705 743.548 112.705 752.298 Q112.705 761.025 109.626 765.632 Q106.571 770.215 100.76 770.215 Q94.9502 770.215 91.8715 765.632 Q88.816 761.025 88.816 752.298 Q88.816 743.548 91.8715 738.965 Q94.9502 734.359 100.76 734.359 Z" fill="#000000" fill-rule="nonzero" fill-opacity="1" /><path clip-path="url(#clip290)" d="M120.922 763.664 L125.807 763.664 L125.807 769.544 L120.922 769.544 L120.922 763.664 Z" fill="#000000" fill-rule="nonzero" fill-opacity="1" /><path clip-path="url(#clip290)" d="M145.992 738.062 Q142.381 738.062 140.552 741.627 Q138.746 745.169 138.746 752.298 Q138.746 759.405 140.552 762.97 Q142.381 766.511 145.992 766.511 Q149.626 766.511 151.431 762.97 Q153.26 759.405 153.26 752.298 Q153.26 745.169 151.431 741.627 Q149.626 738.062 145.992 738.062 M145.992 734.359 Q151.802 734.359 154.857 738.965 Q157.936 743.548 157.936 752.298 Q157.936 761.025 154.857 765.632 Q151.802 770.215 145.992 770.215 Q140.181 770.215 137.103 765.632 Q134.047 761.025 134.047 752.298 Q134.047 743.548 137.103 738.965 Q140.181 734.359 145.992 734.359 Z" fill="#000000" fill-rule="nonzero" fill-opacity="1" /><path clip-path="url(#clip290)" d="M101.756 404.356 Q98.1447 404.356 96.316 407.92 Q94.5104 411.462 94.5104 418.592 Q94.5104 425.698 96.316 429.263 Q98.1447 432.804 101.756 432.804 Q105.39 432.804 107.196 429.263 Q109.024 425.698 109.024 418.592 Q109.024 411.462 107.196 407.92 Q105.39 404.356 101.756 404.356 M101.756 400.652 Q107.566 400.652 110.621 405.258 Q113.7 409.842 113.7 418.592 Q113.7 427.318 110.621 431.925 Q107.566 436.508 101.756 436.508 Q95.9456 436.508 92.8669 431.925 Q89.8114 427.318 89.8114 418.592 Q89.8114 409.842 92.8669 405.258 Q95.9456 400.652 101.756 400.652 Z" fill="#000000" fill-rule="nonzero" fill-opacity="1" /><path clip-path="url(#clip290)" d="M121.918 429.957 L126.802 429.957 L126.802 435.837 L121.918 435.837 L121.918 429.957 Z" fill="#000000" fill-rule="nonzero" fill-opacity="1" /><path clip-path="url(#clip290)" d="M137.033 401.277 L155.39 401.277 L155.39 405.212 L141.316 405.212 L141.316 413.684 Q142.334 413.337 143.353 413.175 Q144.371 412.99 145.39 412.99 Q151.177 412.99 154.556 416.161 Q157.936 419.332 157.936 424.749 Q157.936 430.328 154.464 433.429 Q150.992 436.508 144.672 436.508 Q142.496 436.508 140.228 436.138 Q137.982 435.767 135.575 435.027 L135.575 430.328 Q137.658 431.462 139.881 432.017 Q142.103 432.573 144.58 432.573 Q148.584 432.573 150.922 430.467 Q153.26 428.36 153.26 424.749 Q153.26 421.138 150.922 419.031 Q148.584 416.925 144.58 416.925 Q142.705 416.925 140.83 417.342 Q138.978 417.758 137.033 418.638 L137.033 401.277 Z" fill="#000000" fill-rule="nonzero" fill-opacity="1" /><path clip-path="url(#clip290)" d="M91.5706 98.1948 L99.2095 98.1948 L99.2095 71.8292 L90.8993 73.4959 L90.8993 69.2367 L99.1632 67.57 L103.839 67.57 L103.839 98.1948 L111.478 98.1948 L111.478 102.13 L91.5706 102.13 L91.5706 98.1948 Z" fill="#000000" fill-rule="nonzero" fill-opacity="1" /><path clip-path="url(#clip290)" d="M120.922 96.2504 L125.807 96.2504 L125.807 102.13 L120.922 102.13 L120.922 96.2504 Z" fill="#000000" fill-rule="nonzero" fill-opacity="1" /><path clip-path="url(#clip290)" d="M145.992 70.6487 Q142.381 70.6487 140.552 74.2135 Q138.746 77.7551 138.746 84.8847 Q138.746 91.9912 140.552 95.556 Q142.381 99.0976 145.992 99.0976 Q149.626 99.0976 151.431 95.556 Q153.26 91.9912 153.26 84.8847 Q153.26 77.7551 151.431 74.2135 Q149.626 70.6487 145.992 70.6487 M145.992 66.945 Q151.802 66.945 154.857 71.5515 Q157.936 76.1348 157.936 84.8847 Q157.936 93.6115 154.857 98.218 Q151.802 102.801 145.992 102.801 Q140.181 102.801 137.103 98.218 Q134.047 93.6115 134.047 84.8847 Q134.047 76.1348 137.103 71.5515 Q140.181 66.945 145.992 66.945 Z" fill="#000000" fill-rule="nonzero" fill-opacity="1" /><circle clip-path="url(#clip292)" cx="1865.37" cy="438.043" r="14.4" fill="#009af9" fill-rule="evenodd" fill-opacity="1" stroke="#000000" stroke-opacity="1" stroke-width="3.2"/>
<circle clip-path="url(#clip292)" cx="615.733" cy="575.895" r="14.4" fill="#009af9" fill-rule="evenodd" fill-opacity="1" stroke="#000000" stroke-opacity="1" stroke-width="3.2"/>
<circle clip-path="url(#clip292)" cx="667.081" cy="1063.73" r="14.4" fill="#009af9" fill-rule="evenodd" fill-opacity="1" stroke="#000000" stroke-opacity="1" stroke-width="3.2"/>
<circle clip-path="url(#clip292)" cx="599.066" cy="716.843" r="14.4" fill="#009af9" fill-rule="evenodd" fill-opacity="1" stroke="#000000" stroke-opacity="1" stroke-width="3.2"/>
<circle clip-path="url(#clip292)" cx="1888.66" cy="589.599" r="14.4" fill="#009af9" fill-rule="evenodd" fill-opacity="1" stroke="#000000" stroke-opacity="1" stroke-width="3.2"/>
<circle clip-path="url(#clip292)" cx="1348.68" cy="1445.72" r="14.4" fill="#009af9" fill-rule="evenodd" fill-opacity="1" stroke="#000000" stroke-opacity="1" stroke-width="3.2"/>
<circle clip-path="url(#clip292)" cx="1892.86" cy="867.899" r="14.4" fill="#009af9" fill-rule="evenodd" fill-opacity="1" stroke="#000000" stroke-opacity="1" stroke-width="3.2"/>
<circle clip-path="url(#clip292)" cx="1563.08" cy="1355.02" r="14.4" fill="#009af9" fill-rule="evenodd" fill-opacity="1" stroke="#000000" stroke-opacity="1" stroke-width="3.2"/>
<circle clip-path="url(#clip292)" cx="939.548" cy="130.46" r="14.4" fill="#009af9" fill-rule="evenodd" fill-opacity="1" stroke="#000000" stroke-opacity="1" stroke-width="3.2"/>
<circle clip-path="url(#clip292)" cx="1252.12" cy="87.9763" r="14.4" fill="#009af9" fill-rule="evenodd" fill-opacity="1" stroke="#000000" stroke-opacity="1" stroke-width="3.2"/>
<circle clip-path="url(#clip292)" cx="1153.53" cy="1413.86" r="14.4" fill="#009af9" fill-rule="evenodd" fill-opacity="1" stroke="#000000" stroke-opacity="1" stroke-width="3.2"/>
<circle clip-path="url(#clip292)" cx="1848.25" cy="1084.65" r="14.4" fill="#009af9" fill-rule="evenodd" fill-opacity="1" stroke="#000000" stroke-opacity="1" stroke-width="3.2"/>
<circle clip-path="url(#clip292)" cx="1573.14" cy="155.155" r="14.4" fill="#009af9" fill-rule="evenodd" fill-opacity="1" stroke="#000000" stroke-opacity="1" stroke-width="3.2"/>
<circle clip-path="url(#clip292)" cx="847.956" cy="243.663" r="14.4" fill="#009af9" fill-rule="evenodd" fill-opacity="1" stroke="#000000" stroke-opacity="1" stroke-width="3.2"/>
<circle clip-path="url(#clip292)" cx="1762.52" cy="310.187" r="14.4" fill="#009af9" fill-rule="evenodd" fill-opacity="1" stroke="#000000" stroke-opacity="1" stroke-width="3.2"/>
<circle clip-path="url(#clip292)" cx="1692.4" cy="1240.08" r="14.4" fill="#009af9" fill-rule="evenodd" fill-opacity="1" stroke="#000000" stroke-opacity="1" stroke-width="3.2"/>
<circle clip-path="url(#clip292)" cx="1437.21" cy="112.533" r="14.4" fill="#009af9" fill-rule="evenodd" fill-opacity="1" stroke="#000000" stroke-opacity="1" stroke-width="3.2"/>
<circle clip-path="url(#clip292)" cx="665.29" cy="447.522" r="14.4" fill="#009af9" fill-rule="evenodd" fill-opacity="1" stroke="#000000" stroke-opacity="1" stroke-width="3.2"/>
<circle clip-path="url(#clip292)" cx="863.983" cy="1307.44" r="14.4" fill="#009af9" fill-rule="evenodd" fill-opacity="1" stroke="#000000" stroke-opacity="1" stroke-width="3.2"/>
<circle clip-path="url(#clip292)" cx="629.42" cy="921.454" r="14.4" fill="#009af9" fill-rule="evenodd" fill-opacity="1" stroke="#000000" stroke-opacity="1" stroke-width="3.2"/>
<circle clip-path="url(#clip292)" cx="734.477" cy="1189.25" r="14.4" fill="#009af9" fill-rule="evenodd" fill-opacity="1" stroke="#000000" stroke-opacity="1" stroke-width="3.2"/>
<circle clip-path="url(#clip292)" cx="1947.63" cy="743.466" r="14.4" fill="#009af9" fill-rule="evenodd" fill-opacity="1" stroke="#000000" stroke-opacity="1" stroke-width="3.2"/>
<circle clip-path="url(#clip292)" cx="1010.17" cy="1371.04" r="14.4" fill="#009af9" fill-rule="evenodd" fill-opacity="1" stroke="#000000" stroke-opacity="1" stroke-width="3.2"/>
<circle clip-path="url(#clip292)" cx="1073.14" cy="119.945" r="14.4" fill="#009af9" fill-rule="evenodd" fill-opacity="1" stroke="#000000" stroke-opacity="1" stroke-width="3.2"/>
<circle clip-path="url(#clip292)" cx="734.829" cy="328.695" r="14.4" fill="#009af9" fill-rule="evenodd" fill-opacity="1" stroke="#000000" stroke-opacity="1" stroke-width="3.2"/>
<circle clip-path="url(#clip292)" cx="1559.67" cy="595.153" r="14.4" fill="#009af9" fill-rule="evenodd" fill-opacity="1" stroke="#000000" stroke-opacity="1" stroke-width="3.2"/>
<circle clip-path="url(#clip292)" cx="934.854" cy="664.079" r="14.4" fill="#009af9" fill-rule="evenodd" fill-opacity="1" stroke="#000000" stroke-opacity="1" stroke-width="3.2"/>
<circle clip-path="url(#clip292)" cx="960.528" cy="907.999" r="14.4" fill="#009af9" fill-rule="evenodd" fill-opacity="1" stroke="#000000" stroke-opacity="1" stroke-width="3.2"/>
<circle clip-path="url(#clip292)" cx="1301.32" cy="1098.99" r="14.4" fill="#009af9" fill-rule="evenodd" fill-opacity="1" stroke="#000000" stroke-opacity="1" stroke-width="3.2"/>
<circle clip-path="url(#clip292)" cx="1573.42" cy="810.081" r="14.4" fill="#009af9" fill-rule="evenodd" fill-opacity="1" stroke="#000000" stroke-opacity="1" stroke-width="3.2"/>
<circle clip-path="url(#clip292)" cx="1096.76" cy="441.362" r="14.4" fill="#009af9" fill-rule="evenodd" fill-opacity="1" stroke="#000000" stroke-opacity="1" stroke-width="3.2"/>
<circle clip-path="url(#clip292)" cx="1253.05" cy="420.12" r="14.4" fill="#009af9" fill-rule="evenodd" fill-opacity="1" stroke="#000000" stroke-opacity="1" stroke-width="3.2"/>
<circle clip-path="url(#clip292)" cx="1413.56" cy="453.709" r="14.4" fill="#009af9" fill-rule="evenodd" fill-opacity="1" stroke="#000000" stroke-opacity="1" stroke-width="3.2"/>
<circle clip-path="url(#clip292)" cx="1533.73" cy="950.716" r="14.4" fill="#009af9" fill-rule="evenodd" fill-opacity="1" stroke="#000000" stroke-opacity="1" stroke-width="3.2"/>
<circle clip-path="url(#clip292)" cx="1144.08" cy="1065.29" r="14.4" fill="#009af9" fill-rule="evenodd" fill-opacity="1" stroke="#000000" stroke-opacity="1" stroke-width="3.2"/>
<circle clip-path="url(#clip292)" cx="994.402" cy="540.479" r="14.4" fill="#009af9" fill-rule="evenodd" fill-opacity="1" stroke="#000000" stroke-opacity="1" stroke-width="3.2"/>
<circle clip-path="url(#clip292)" cx="1419.23" cy="1033.44" r="14.4" fill="#009af9" fill-rule="evenodd" fill-opacity="1" stroke="#000000" stroke-opacity="1" stroke-width="3.2"/>
<polyline clip-path="url(#clip292)" style="stroke:#000000; stroke-linecap:round; stroke-linejoin:round; stroke-width:4; stroke-opacity:1; fill:none" points="1865.37,438.043 1888.66,589.599 "/>
<polyline clip-path="url(#clip292)" style="stroke:#000000; stroke-linecap:round; stroke-linejoin:round; stroke-width:4; stroke-opacity:1; fill:none" points="1865.37,438.043 1762.52,310.187 "/>
<polyline clip-path="url(#clip292)" style="stroke:#000000; stroke-linecap:round; stroke-linejoin:round; stroke-width:4; stroke-opacity:1; fill:none" points="615.733,575.895 599.066,716.843 "/>
<polyline clip-path="url(#clip292)" style="stroke:#000000; stroke-linecap:round; stroke-linejoin:round; stroke-width:4; stroke-opacity:1; fill:none" points="615.733,575.895 665.29,447.522 "/>
<polyline clip-path="url(#clip292)" style="stroke:#000000; stroke-linecap:round; stroke-linejoin:round; stroke-width:4; stroke-opacity:1; fill:none" points="667.081,1063.73 629.42,921.454 "/>
<polyline clip-path="url(#clip292)" style="stroke:#000000; stroke-linecap:round; stroke-linejoin:round; stroke-width:4; stroke-opacity:1; fill:none" points="667.081,1063.73 734.477,1189.25 "/>
<polyline clip-path="url(#clip292)" style="stroke:#000000; stroke-linecap:round; stroke-linejoin:round; stroke-width:4; stroke-opacity:1; fill:none" points="599.066,716.843 629.42,921.454 "/>
<polyline clip-path="url(#clip292)" style="stroke:#000000; stroke-linecap:round; stroke-linejoin:round; stroke-width:4; stroke-opacity:1; fill:none" points="1888.66,589.599 1947.63,743.466 "/>
<polyline clip-path="url(#clip292)" style="stroke:#000000; stroke-linecap:round; stroke-linejoin:round; stroke-width:4; stroke-opacity:1; fill:none" points="1348.68,1445.72 1563.08,1355.02 "/>
<polyline clip-path="url(#clip292)" style="stroke:#000000; stroke-linecap:round; stroke-linejoin:round; stroke-width:4; stroke-opacity:1; fill:none" points="1348.68,1445.72 1153.53,1413.86 "/>
<polyline clip-path="url(#clip292)" style="stroke:#000000; stroke-linecap:round; stroke-linejoin:round; stroke-width:4; stroke-opacity:1; fill:none" points="1892.86,867.899 1848.25,1084.65 "/>
<polyline clip-path="url(#clip292)" style="stroke:#000000; stroke-linecap:round; stroke-linejoin:round; stroke-width:4; stroke-opacity:1; fill:none" points="1892.86,867.899 1947.63,743.466 "/>
<polyline clip-path="url(#clip292)" style="stroke:#000000; stroke-linecap:round; stroke-linejoin:round; stroke-width:4; stroke-opacity:1; fill:none" points="1563.08,1355.02 1692.4,1240.08 "/>
<polyline clip-path="url(#clip292)" style="stroke:#000000; stroke-linecap:round; stroke-linejoin:round; stroke-width:4; stroke-opacity:1; fill:none" points="939.548,130.46 847.956,243.663 "/>
<polyline clip-path="url(#clip292)" style="stroke:#000000; stroke-linecap:round; stroke-linejoin:round; stroke-width:4; stroke-opacity:1; fill:none" points="939.548,130.46 1073.14,119.945 "/>
<polyline clip-path="url(#clip292)" style="stroke:#000000; stroke-linecap:round; stroke-linejoin:round; stroke-width:4; stroke-opacity:1; fill:none" points="1252.12,87.9763 1437.21,112.533 "/>
<polyline clip-path="url(#clip292)" style="stroke:#000000; stroke-linecap:round; stroke-linejoin:round; stroke-width:4; stroke-opacity:1; fill:none" points="1252.12,87.9763 1073.14,119.945 "/>
<polyline clip-path="url(#clip292)" style="stroke:#000000; stroke-linecap:round; stroke-linejoin:round; stroke-width:4; stroke-opacity:1; fill:none" points="1153.53,1413.86 1010.17,1371.04 "/>
<polyline clip-path="url(#clip292)" style="stroke:#000000; stroke-linecap:round; stroke-linejoin:round; stroke-width:4; stroke-opacity:1; fill:none" points="1848.25,1084.65 1692.4,1240.08 "/>
<polyline clip-path="url(#clip292)" style="stroke:#000000; stroke-linecap:round; stroke-linejoin:round; stroke-width:4; stroke-opacity:1; fill:none" points="1573.14,155.155 1762.52,310.187 "/>
<polyline clip-path="url(#clip292)" style="stroke:#000000; stroke-linecap:round; stroke-linejoin:round; stroke-width:4; stroke-opacity:1; fill:none" points="1573.14,155.155 1437.21,112.533 "/>
<polyline clip-path="url(#clip292)" style="stroke:#000000; stroke-linecap:round; stroke-linejoin:round; stroke-width:4; stroke-opacity:1; fill:none" points="847.956,243.663 734.829,328.695 "/>
<polyline clip-path="url(#clip292)" style="stroke:#000000; stroke-linecap:round; stroke-linejoin:round; stroke-width:4; stroke-opacity:1; fill:none" points="665.29,447.522 734.829,328.695 "/>
<polyline clip-path="url(#clip292)" style="stroke:#000000; stroke-linecap:round; stroke-linejoin:round; stroke-width:4; stroke-opacity:1; fill:none" points="863.983,1307.44 734.477,1189.25 "/>
<polyline clip-path="url(#clip292)" style="stroke:#000000; stroke-linecap:round; stroke-linejoin:round; stroke-width:4; stroke-opacity:1; fill:none" points="863.983,1307.44 1010.17,1371.04 "/>
<polyline clip-path="url(#clip292)" style="stroke:#000000; stroke-linecap:round; stroke-linejoin:round; stroke-width:4; stroke-opacity:1; fill:none" points="1559.67,595.153 1573.42,810.081 "/>
<polyline clip-path="url(#clip292)" style="stroke:#000000; stroke-linecap:round; stroke-linejoin:round; stroke-width:4; stroke-opacity:1; fill:none" points="1559.67,595.153 1413.56,453.709 "/>
<polyline clip-path="url(#clip292)" style="stroke:#000000; stroke-linecap:round; stroke-linejoin:round; stroke-width:4; stroke-opacity:1; fill:none" points="934.854,664.079 960.528,907.999 "/>
<polyline clip-path="url(#clip292)" style="stroke:#000000; stroke-linecap:round; stroke-linejoin:round; stroke-width:4; stroke-opacity:1; fill:none" points="934.854,664.079 994.402,540.479 "/>
<polyline clip-path="url(#clip292)" style="stroke:#000000; stroke-linecap:round; stroke-linejoin:round; stroke-width:4; stroke-opacity:1; fill:none" points="960.528,907.999 1144.08,1065.29 "/>
<polyline clip-path="url(#clip292)" style="stroke:#000000; stroke-linecap:round; stroke-linejoin:round; stroke-width:4; stroke-opacity:1; fill:none" points="1301.32,1098.99 1144.08,1065.29 "/>
<polyline clip-path="url(#clip292)" style="stroke:#000000; stroke-linecap:round; stroke-linejoin:round; stroke-width:4; stroke-opacity:1; fill:none" points="1301.32,1098.99 1419.23,1033.44 "/>
<polyline clip-path="url(#clip292)" style="stroke:#000000; stroke-linecap:round; stroke-linejoin:round; stroke-width:4; stroke-opacity:1; fill:none" points="1573.42,810.081 1533.73,950.716 "/>
<polyline clip-path="url(#clip292)" style="stroke:#000000; stroke-linecap:round; stroke-linejoin:round; stroke-width:4; stroke-opacity:1; fill:none" points="1096.76,441.362 1253.05,420.12 "/>
<polyline clip-path="url(#clip292)" style="stroke:#000000; stroke-linecap:round; stroke-linejoin:round; stroke-width:4; stroke-opacity:1; fill:none" points="1096.76,441.362 994.402,540.479 "/>
<polyline clip-path="url(#clip292)" style="stroke:#000000; stroke-linecap:round; stroke-linejoin:round; stroke-width:4; stroke-opacity:1; fill:none" points="1253.05,420.12 1413.56,453.709 "/>
<polyline clip-path="url(#clip292)" style="stroke:#000000; stroke-linecap:round; stroke-linejoin:round; stroke-width:4; stroke-opacity:1; fill:none" points="1533.73,950.716 1419.23,1033.44 "/>
</svg>
