<?xml version="1.0" encoding="utf-8"?>
<svg xmlns="http://www.w3.org/2000/svg" xmlns:xlink="http://www.w3.org/1999/xlink" width="600" height="400" viewBox="0 0 2400 1600">
<defs>
  <clipPath id="clip570">
    <rect x="0" y="0" width="2400" height="1600"/>
  </clipPath>
</defs>
<path clip-path="url(#clip570)" d="M0 1600 L2400 1600 L2400 0 L0 0  Z" fill="#ffffff" fill-rule="evenodd" fill-opacity="1"/>
<defs>
  <clipPath id="clip571">
    <rect x="480" y="0" width="1681" height="1600"/>
  </clipPath>
</defs>
<path clip-path="url(#clip570)" d="M193.936 1486.45 L2352.76 1486.45 L2352.76 47.2441 L193.936 47.2441  Z" fill="#ffffff" fill-rule="evenodd" fill-opacity="1"/>
<defs>
  <clipPath id="clip572">
    <rect x="193" y="47" width="2160" height="1440"/>
  </clipPath>
</defs>
<polyline clip-path="url(#clip572)" style="stroke:#000000; stroke-linecap:round; stroke-linejoin:round; stroke-width:2; stroke-opacity:0.1; fill:none" points="281.93,1486.45 281.93,47.2441 "/>
<polyline clip-path="url(#clip572)" style="stroke:#000000; stroke-linecap:round; stroke-linejoin:round; stroke-width:2; stroke-opacity:0.1; fill:none" points="612.3,1486.45 612.3,47.2441 "/>
<polyline clip-path="url(#clip572)" style="stroke:#000000; stroke-linecap:round; stroke-linejoin:round; stroke-width:2; stroke-opacity:0.1; fill:none" points="942.67,1486.45 942.67,47.2441 "/>
<polyline clip-path="url(#clip572)" style="stroke:#000000; stroke-linecap:round; stroke-linejoin:round; stroke-width:2; stroke-opacity:0.1; fill:none" points="1273.04,1486.45 1273.04,47.2441 "/>
<polyline clip-path="url(#clip572)" style="stroke:#000000; stroke-linecap:round; stroke-linejoin:round; stroke-width:2; stroke-opacity:0.1; fill:none" points="1603.41,1486.45 1603.41,47.2441 "/>
<polyline clip-path="url(#clip572)" style="stroke:#000000; stroke-linecap:round; stroke-linejoin:round; stroke-width:2; stroke-opacity:0.1; fill:none" points="1933.78,1486.45 1933.78,47.2441 "/>
<polyline clip-path="url(#clip572)" style="stroke:#000000; stroke-linecap:round; stroke-linejoin:round; stroke-width:2; stroke-opacity:0.1; fill:none" points="2264.15,1486.45 2264.15,47.2441 "/>
<polyline clip-path="url(#clip570)" style="stroke:#000000; stroke-linecap:round; stroke-linejoin:round; stroke-width:4; stroke-opacity:1; fill:none" points="193.936,1486.45 2352.76,1486.45 "/>
<polyline clip-path="url(#clip570)" style="stroke:#000000; stroke-linecap:round; stroke-linejoin:round; stroke-width:4; stroke-opacity:1; fill:none" points="281.93,1486.45 281.93,1467.55 "/>
<polyline clip-path="url(#clip570)" style="stroke:#000000; stroke-linecap:round; stroke-linejoin:round; stroke-width:4; stroke-opacity:1; fill:none" points="612.3,1486.45 612.3,1467.55 "/>
<polyline clip-path="url(#clip570)" style="stroke:#000000; stroke-linecap:round; stroke-linejoin:round; stroke-width:4; stroke-opacity:1; fill:none" points="942.67,1486.45 942.67,1467.55 "/>
<polyline clip-path="url(#clip570)" style="stroke:#000000; stroke-linecap:round; stroke-linejoin:round; stroke-width:4; stroke-opacity:1; fill:none" points="1273.04,1486.45 1273.04,1467.55 "/>
<polyline clip-path="url(#clip570)" style="stroke:#000000; stroke-linecap:round; stroke-linejoin:round; stroke-width:4; stroke-opacity:1; fill:none" points="1603.41,1486.45 1603.41,1467.55 "/>
<polyline clip-path="url(#clip570)" style="stroke:#000000; stroke-linecap:round; stroke-linejoin:round; stroke-width:4; stroke-opacity:1; fill:none" points="1933.78,1486.45 1933.78,1467.55 "/>
<polyline clip-path="url(#clip570)" style="stroke:#000000; stroke-linecap:round; stroke-linejoin:round; stroke-width:4; stroke-opacity:1; fill:none" points="2264.15,1486.45 2264.15,1467.55 "/>
<path clip-path="url(#clip570)" d="M228.955 1532.02 L258.631 1532.02 L258.631 1535.95 L228.955 1535.95 L228.955 1532.02 Z" fill="#000000" fill-rule="nonzero" fill-opacity="1" /><path clip-path="url(#clip570)" d="M269.534 1544.91 L277.173 1544.91 L277.173 1518.55 L268.863 1520.21 L268.863 1515.95 L277.127 1514.29 L281.802 1514.29 L281.802 1544.91 L289.441 1544.91 L289.441 1548.85 L269.534 1548.85 L269.534 1544.91 Z" fill="#000000" fill-rule="nonzero" fill-opacity="1" /><path clip-path="url(#clip570)" d="M298.886 1542.97 L303.77 1542.97 L303.77 1548.85 L298.886 1548.85 L298.886 1542.97 Z" fill="#000000" fill-rule="nonzero" fill-opacity="1" /><path clip-path="url(#clip570)" d="M314.001 1514.29 L332.358 1514.29 L332.358 1518.22 L318.284 1518.22 L318.284 1526.7 Q319.302 1526.35 320.321 1526.19 Q321.339 1526 322.358 1526 Q328.145 1526 331.524 1529.17 Q334.904 1532.34 334.904 1537.76 Q334.904 1543.34 331.432 1546.44 Q327.96 1549.52 321.64 1549.52 Q319.464 1549.52 317.196 1549.15 Q314.95 1548.78 312.543 1548.04 L312.543 1543.34 Q314.626 1544.47 316.849 1545.03 Q319.071 1545.58 321.548 1545.58 Q325.552 1545.58 327.89 1543.48 Q330.228 1541.37 330.228 1537.76 Q330.228 1534.15 327.89 1532.04 Q325.552 1529.94 321.548 1529.94 Q319.673 1529.94 317.798 1530.35 Q315.946 1530.77 314.001 1531.65 L314.001 1514.29 Z" fill="#000000" fill-rule="nonzero" fill-opacity="1" /><path clip-path="url(#clip570)" d="M558.828 1532.02 L588.503 1532.02 L588.503 1535.95 L558.828 1535.95 L558.828 1532.02 Z" fill="#000000" fill-rule="nonzero" fill-opacity="1" /><path clip-path="url(#clip570)" d="M599.406 1544.91 L607.045 1544.91 L607.045 1518.55 L598.735 1520.21 L598.735 1515.95 L606.999 1514.29 L611.675 1514.29 L611.675 1544.91 L619.313 1544.91 L619.313 1548.85 L599.406 1548.85 L599.406 1544.91 Z" fill="#000000" fill-rule="nonzero" fill-opacity="1" /><path clip-path="url(#clip570)" d="M628.758 1542.97 L633.642 1542.97 L633.642 1548.85 L628.758 1548.85 L628.758 1542.97 Z" fill="#000000" fill-rule="nonzero" fill-opacity="1" /><path clip-path="url(#clip570)" d="M653.827 1517.37 Q650.216 1517.37 648.387 1520.93 Q646.582 1524.47 646.582 1531.6 Q646.582 1538.71 648.387 1542.27 Q650.216 1545.82 653.827 1545.82 Q657.461 1545.82 659.267 1542.27 Q661.096 1538.71 661.096 1531.6 Q661.096 1524.47 659.267 1520.93 Q657.461 1517.37 653.827 1517.37 M653.827 1513.66 Q659.637 1513.66 662.693 1518.27 Q665.772 1522.85 665.772 1531.6 Q665.772 1540.33 662.693 1544.94 Q659.637 1549.52 653.827 1549.52 Q648.017 1549.52 644.938 1544.94 Q641.883 1540.33 641.883 1531.6 Q641.883 1522.85 644.938 1518.27 Q648.017 1513.66 653.827 1513.66 Z" fill="#000000" fill-rule="nonzero" fill-opacity="1" /><path clip-path="url(#clip570)" d="M889.695 1532.02 L919.371 1532.02 L919.371 1535.95 L889.695 1535.95 L889.695 1532.02 Z" fill="#000000" fill-rule="nonzero" fill-opacity="1" /><path clip-path="url(#clip570)" d="M939.464 1517.37 Q935.852 1517.37 934.024 1520.93 Q932.218 1524.47 932.218 1531.6 Q932.218 1538.71 934.024 1542.27 Q935.852 1545.82 939.464 1545.82 Q943.098 1545.82 944.903 1542.27 Q946.732 1538.71 946.732 1531.6 Q946.732 1524.47 944.903 1520.93 Q943.098 1517.37 939.464 1517.37 M939.464 1513.66 Q945.274 1513.66 948.329 1518.27 Q951.408 1522.85 951.408 1531.6 Q951.408 1540.33 948.329 1544.94 Q945.274 1549.52 939.464 1549.52 Q933.653 1549.52 930.575 1544.94 Q927.519 1540.33 927.519 1531.6 Q927.519 1522.85 930.575 1518.27 Q933.653 1513.66 939.464 1513.66 Z" fill="#000000" fill-rule="nonzero" fill-opacity="1" /><path clip-path="url(#clip570)" d="M959.625 1542.97 L964.51 1542.97 L964.51 1548.85 L959.625 1548.85 L959.625 1542.97 Z" fill="#000000" fill-rule="nonzero" fill-opacity="1" /><path clip-path="url(#clip570)" d="M974.741 1514.29 L993.098 1514.29 L993.098 1518.22 L979.024 1518.22 L979.024 1526.7 Q980.042 1526.35 981.061 1526.19 Q982.079 1526 983.098 1526 Q988.885 1526 992.264 1529.17 Q995.644 1532.34 995.644 1537.76 Q995.644 1543.34 992.172 1546.44 Q988.699 1549.52 982.38 1549.52 Q980.204 1549.52 977.936 1549.15 Q975.69 1548.78 973.283 1548.04 L973.283 1543.34 Q975.366 1544.47 977.588 1545.03 Q979.811 1545.58 982.287 1545.58 Q986.292 1545.58 988.63 1543.48 Q990.968 1541.37 990.968 1537.76 Q990.968 1534.15 988.63 1532.04 Q986.292 1529.94 982.287 1529.94 Q980.412 1529.94 978.537 1530.35 Q976.686 1530.77 974.741 1531.65 L974.741 1514.29 Z" fill="#000000" fill-rule="nonzero" fill-opacity="1" /><path clip-path="url(#clip570)" d="M1250.42 1517.37 Q1246.81 1517.37 1244.98 1520.93 Q1243.18 1524.47 1243.18 1531.6 Q1243.18 1538.71 1244.98 1542.27 Q1246.81 1545.82 1250.42 1545.82 Q1254.06 1545.82 1255.86 1542.27 Q1257.69 1538.71 1257.69 1531.6 Q1257.69 1524.47 1255.86 1520.93 Q1254.06 1517.37 1250.42 1517.37 M1250.42 1513.66 Q1256.23 1513.66 1259.29 1518.27 Q1262.37 1522.85 1262.37 1531.6 Q1262.37 1540.33 1259.29 1544.94 Q1256.23 1549.52 1250.42 1549.52 Q1244.61 1549.52 1241.53 1544.94 Q1238.48 1540.33 1238.48 1531.6 Q1238.48 1522.85 1241.53 1518.27 Q1244.61 1513.66 1250.42 1513.66 Z" fill="#000000" fill-rule="nonzero" fill-opacity="1" /><path clip-path="url(#clip570)" d="M1270.59 1542.97 L1275.47 1542.97 L1275.47 1548.85 L1270.59 1548.85 L1270.59 1542.97 Z" fill="#000000" fill-rule="nonzero" fill-opacity="1" /><path clip-path="url(#clip570)" d="M1295.66 1517.37 Q1292.04 1517.37 1290.22 1520.93 Q1288.41 1524.47 1288.41 1531.6 Q1288.41 1538.71 1290.22 1542.27 Q1292.04 1545.82 1295.66 1545.82 Q1299.29 1545.82 1301.09 1542.27 Q1302.92 1538.71 1302.92 1531.6 Q1302.92 1524.47 1301.09 1520.93 Q1299.29 1517.37 1295.66 1517.37 M1295.66 1513.66 Q1301.47 1513.66 1304.52 1518.27 Q1307.6 1522.85 1307.6 1531.6 Q1307.6 1540.33 1304.52 1544.94 Q1301.47 1549.52 1295.66 1549.52 Q1289.84 1549.52 1286.77 1544.94 Q1283.71 1540.33 1283.71 1531.6 Q1283.71 1522.85 1286.77 1518.27 Q1289.84 1513.66 1295.66 1513.66 Z" fill="#000000" fill-rule="nonzero" fill-opacity="1" /><path clip-path="url(#clip570)" d="M1581.29 1517.37 Q1577.68 1517.37 1575.85 1520.93 Q1574.05 1524.47 1574.05 1531.6 Q1574.05 1538.71 1575.85 1542.27 Q1577.68 1545.82 1581.29 1545.82 Q1584.93 1545.82 1586.73 1542.27 Q1588.56 1538.71 1588.56 1531.6 Q1588.56 1524.47 1586.73 1520.93 Q1584.93 1517.37 1581.29 1517.37 M1581.29 1513.66 Q1587.1 1513.66 1590.16 1518.27 Q1593.24 1522.85 1593.24 1531.6 Q1593.24 1540.33 1590.16 1544.94 Q1587.1 1549.52 1581.29 1549.52 Q1575.48 1549.52 1572.4 1544.94 Q1569.35 1540.33 1569.35 1531.6 Q1569.35 1522.85 1572.4 1518.27 Q1575.48 1513.66 1581.29 1513.66 Z" fill="#000000" fill-rule="nonzero" fill-opacity="1" /><path clip-path="url(#clip570)" d="M1601.45 1542.97 L1606.34 1542.97 L1606.34 1548.85 L1601.45 1548.85 L1601.45 1542.97 Z" fill="#000000" fill-rule="nonzero" fill-opacity="1" /><path clip-path="url(#clip570)" d="M1616.57 1514.29 L1634.93 1514.29 L1634.93 1518.22 L1620.85 1518.22 L1620.85 1526.7 Q1621.87 1526.35 1622.89 1526.19 Q1623.91 1526 1624.93 1526 Q1630.71 1526 1634.09 1529.17 Q1637.47 1532.34 1637.47 1537.76 Q1637.47 1543.34 1634 1546.44 Q1630.53 1549.52 1624.21 1549.52 Q1622.03 1549.52 1619.76 1549.15 Q1617.52 1548.78 1615.11 1548.04 L1615.11 1543.34 Q1617.19 1544.47 1619.42 1545.03 Q1621.64 1545.58 1624.12 1545.58 Q1628.12 1545.58 1630.46 1543.48 Q1632.8 1541.37 1632.8 1537.76 Q1632.8 1534.15 1630.46 1532.04 Q1628.12 1529.94 1624.12 1529.94 Q1622.24 1529.94 1620.37 1530.35 Q1618.51 1530.77 1616.57 1531.65 L1616.57 1514.29 Z" fill="#000000" fill-rule="nonzero" fill-opacity="1" /><path clip-path="url(#clip570)" d="M1900.93 1544.91 L1908.57 1544.91 L1908.57 1518.55 L1900.26 1520.21 L1900.26 1515.95 L1908.52 1514.29 L1913.2 1514.29 L1913.2 1544.91 L1920.84 1544.91 L1920.84 1548.85 L1900.93 1548.85 L1900.93 1544.91 Z" fill="#000000" fill-rule="nonzero" fill-opacity="1" /><path clip-path="url(#clip570)" d="M1930.28 1542.97 L1935.17 1542.97 L1935.17 1548.85 L1930.28 1548.85 L1930.28 1542.97 Z" fill="#000000" fill-rule="nonzero" fill-opacity="1" /><path clip-path="url(#clip570)" d="M1955.35 1517.37 Q1951.74 1517.37 1949.91 1520.93 Q1948.11 1524.47 1948.11 1531.6 Q1948.11 1538.71 1949.91 1542.27 Q1951.74 1545.82 1955.35 1545.82 Q1958.99 1545.82 1960.79 1542.27 Q1962.62 1538.71 1962.62 1531.6 Q1962.62 1524.47 1960.79 1520.93 Q1958.99 1517.37 1955.35 1517.37 M1955.35 1513.66 Q1961.16 1513.66 1964.22 1518.27 Q1967.3 1522.85 1967.3 1531.6 Q1967.3 1540.33 1964.22 1544.94 Q1961.16 1549.52 1955.35 1549.52 Q1949.54 1549.52 1946.46 1544.94 Q1943.41 1540.33 1943.41 1531.6 Q1943.41 1522.85 1946.46 1518.27 Q1949.54 1513.66 1955.35 1513.66 Z" fill="#000000" fill-rule="nonzero" fill-opacity="1" /><path clip-path="url(#clip570)" d="M2231.8 1544.91 L2239.44 1544.91 L2239.44 1518.55 L2231.13 1520.21 L2231.13 1515.95 L2239.39 1514.29 L2244.07 1514.29 L2244.07 1544.91 L2251.71 1544.91 L2251.71 1548.85 L2231.8 1548.85 L2231.8 1544.91 Z" fill="#000000" fill-rule="nonzero" fill-opacity="1" /><path clip-path="url(#clip570)" d="M2261.15 1542.97 L2266.04 1542.97 L2266.04 1548.85 L2261.15 1548.85 L2261.15 1542.97 Z" fill="#000000" fill-rule="nonzero" fill-opacity="1" /><path clip-path="url(#clip570)" d="M2276.27 1514.29 L2294.62 1514.29 L2294.62 1518.22 L2280.55 1518.22 L2280.55 1526.7 Q2281.57 1526.35 2282.59 1526.19 Q2283.61 1526 2284.62 1526 Q2290.41 1526 2293.79 1529.17 Q2297.17 1532.34 2297.17 1537.76 Q2297.17 1543.34 2293.7 1546.44 Q2290.23 1549.52 2283.91 1549.52 Q2281.73 1549.52 2279.46 1549.15 Q2277.22 1548.78 2274.81 1548.04 L2274.81 1543.34 Q2276.89 1544.47 2279.11 1545.03 Q2281.34 1545.58 2283.81 1545.58 Q2287.82 1545.58 2290.16 1543.48 Q2292.49 1541.37 2292.49 1537.76 Q2292.49 1534.15 2290.16 1532.04 Q2287.82 1529.94 2283.81 1529.94 Q2281.94 1529.94 2280.06 1530.35 Q2278.21 1530.77 2276.27 1531.65 L2276.27 1514.29 Z" fill="#000000" fill-rule="nonzero" fill-opacity="1" /><polyline clip-path="url(#clip572)" style="stroke:#000000; stroke-linecap:round; stroke-linejoin:round; stroke-width:2; stroke-opacity:0.1; fill:none" points="193.936,1428.41 2352.76,1428.41 "/>
<polyline clip-path="url(#clip572)" style="stroke:#000000; stroke-linecap:round; stroke-linejoin:round; stroke-width:2; stroke-opacity:0.1; fill:none" points="193.936,1098.04 2352.76,1098.04 "/>
<polyline clip-path="url(#clip572)" style="stroke:#000000; stroke-linecap:round; stroke-linejoin:round; stroke-width:2; stroke-opacity:0.1; fill:none" points="193.936,767.673 2352.76,767.673 "/>
<polyline clip-path="url(#clip572)" style="stroke:#000000; stroke-linecap:round; stroke-linejoin:round; stroke-width:2; stroke-opacity:0.1; fill:none" points="193.936,437.303 2352.76,437.303 "/>
<polyline clip-path="url(#clip572)" style="stroke:#000000; stroke-linecap:round; stroke-linejoin:round; stroke-width:2; stroke-opacity:0.1; fill:none" points="193.936,106.933 2352.76,106.933 "/>
<polyline clip-path="url(#clip570)" style="stroke:#000000; stroke-linecap:round; stroke-linejoin:round; stroke-width:4; stroke-opacity:1; fill:none" points="193.936,1486.45 193.936,47.2441 "/>
<polyline clip-path="url(#clip570)" style="stroke:#000000; stroke-linecap:round; stroke-linejoin:round; stroke-width:4; stroke-opacity:1; fill:none" points="193.936,1428.41 212.834,1428.41 "/>
<polyline clip-path="url(#clip570)" style="stroke:#000000; stroke-linecap:round; stroke-linejoin:round; stroke-width:4; stroke-opacity:1; fill:none" points="193.936,1098.04 212.834,1098.04 "/>
<polyline clip-path="url(#clip570)" style="stroke:#000000; stroke-linecap:round; stroke-linejoin:round; stroke-width:4; stroke-opacity:1; fill:none" points="193.936,767.673 212.834,767.673 "/>
<polyline clip-path="url(#clip570)" style="stroke:#000000; stroke-linecap:round; stroke-linejoin:round; stroke-width:4; stroke-opacity:1; fill:none" points="193.936,437.303 212.834,437.303 "/>
<polyline clip-path="url(#clip570)" style="stroke:#000000; stroke-linecap:round; stroke-linejoin:round; stroke-width:4; stroke-opacity:1; fill:none" points="193.936,106.933 212.834,106.933 "/>
<path clip-path="url(#clip570)" d="M50.9921 1428.86 L80.6679 1428.86 L80.6679 1432.8 L50.9921 1432.8 L50.9921 1428.86 Z" fill="#000000" fill-rule="nonzero" fill-opacity="1" /><path clip-path="url(#clip570)" d="M91.5706 1441.76 L99.2095 1441.76 L99.2095 1415.39 L90.8993 1417.06 L90.8993 1412.8 L99.1632 1411.13 L103.839 1411.13 L103.839 1441.76 L111.478 1441.76 L111.478 1445.69 L91.5706 1445.69 L91.5706 1441.76 Z" fill="#000000" fill-rule="nonzero" fill-opacity="1" /><path clip-path="url(#clip570)" d="M120.922 1439.81 L125.807 1439.81 L125.807 1445.69 L120.922 1445.69 L120.922 1439.81 Z" fill="#000000" fill-rule="nonzero" fill-opacity="1" /><path clip-path="url(#clip570)" d="M145.992 1414.21 Q142.381 1414.21 140.552 1417.78 Q138.746 1421.32 138.746 1428.45 Q138.746 1435.55 140.552 1439.12 Q142.381 1442.66 145.992 1442.66 Q149.626 1442.66 151.431 1439.12 Q153.26 1435.55 153.26 1428.45 Q153.26 1421.32 151.431 1417.78 Q149.626 1414.21 145.992 1414.21 M145.992 1410.51 Q151.802 1410.51 154.857 1415.11 Q157.936 1419.7 157.936 1428.45 Q157.936 1437.17 154.857 1441.78 Q151.802 1446.36 145.992 1446.36 Q140.181 1446.36 137.103 1441.78 Q134.047 1437.17 134.047 1428.45 Q134.047 1419.7 137.103 1415.11 Q140.181 1410.51 145.992 1410.51 Z" fill="#000000" fill-rule="nonzero" fill-opacity="1" /><path clip-path="url(#clip570)" d="M51.9875 1098.49 L81.6633 1098.49 L81.6633 1102.43 L51.9875 1102.43 L51.9875 1098.49 Z" fill="#000000" fill-rule="nonzero" fill-opacity="1" /><path clip-path="url(#clip570)" d="M101.756 1083.84 Q98.1447 1083.84 96.316 1087.41 Q94.5104 1090.95 94.5104 1098.08 Q94.5104 1105.18 96.316 1108.75 Q98.1447 1112.29 101.756 1112.29 Q105.39 1112.29 107.196 1108.75 Q109.024 1105.18 109.024 1098.08 Q109.024 1090.95 107.196 1087.41 Q105.39 1083.84 101.756 1083.84 M101.756 1080.14 Q107.566 1080.14 110.621 1084.74 Q113.7 1089.33 113.7 1098.08 Q113.7 1106.8 110.621 1111.41 Q107.566 1115.99 101.756 1115.99 Q95.9456 1115.99 92.8669 1111.41 Q89.8114 1106.8 89.8114 1098.08 Q89.8114 1089.33 92.8669 1084.74 Q95.9456 1080.14 101.756 1080.14 Z" fill="#000000" fill-rule="nonzero" fill-opacity="1" /><path clip-path="url(#clip570)" d="M121.918 1109.44 L126.802 1109.44 L126.802 1115.32 L121.918 1115.32 L121.918 1109.44 Z" fill="#000000" fill-rule="nonzero" fill-opacity="1" /><path clip-path="url(#clip570)" d="M137.033 1080.76 L155.39 1080.76 L155.39 1084.7 L141.316 1084.7 L141.316 1093.17 Q142.334 1092.82 143.353 1092.66 Q144.371 1092.48 145.39 1092.48 Q151.177 1092.48 154.556 1095.65 Q157.936 1098.82 157.936 1104.24 Q157.936 1109.81 154.464 1112.92 Q150.992 1115.99 144.672 1115.99 Q142.496 1115.99 140.228 1115.62 Q137.982 1115.25 135.575 1114.51 L135.575 1109.81 Q137.658 1110.95 139.881 1111.5 Q142.103 1112.06 144.58 1112.06 Q148.584 1112.06 150.922 1109.95 Q153.26 1107.85 153.26 1104.24 Q153.26 1100.62 150.922 1098.52 Q148.584 1096.41 144.58 1096.41 Q142.705 1096.41 140.83 1096.83 Q138.978 1097.24 137.033 1098.12 L137.033 1080.76 Z" fill="#000000" fill-rule="nonzero" fill-opacity="1" /><path clip-path="url(#clip570)" d="M100.76 753.472 Q97.1493 753.472 95.3206 757.037 Q93.515 760.578 93.515 767.708 Q93.515 774.814 95.3206 778.379 Q97.1493 781.921 100.76 781.921 Q104.395 781.921 106.2 778.379 Q108.029 774.814 108.029 767.708 Q108.029 760.578 106.2 757.037 Q104.395 753.472 100.76 753.472 M100.76 749.768 Q106.571 749.768 109.626 754.375 Q112.705 758.958 112.705 767.708 Q112.705 776.435 109.626 781.041 Q106.571 785.625 100.76 785.625 Q94.9502 785.625 91.8715 781.041 Q88.816 776.435 88.816 767.708 Q88.816 758.958 91.8715 754.375 Q94.9502 749.768 100.76 749.768 Z" fill="#000000" fill-rule="nonzero" fill-opacity="1" /><path clip-path="url(#clip570)" d="M120.922 779.074 L125.807 779.074 L125.807 784.953 L120.922 784.953 L120.922 779.074 Z" fill="#000000" fill-rule="nonzero" fill-opacity="1" /><path clip-path="url(#clip570)" d="M145.992 753.472 Q142.381 753.472 140.552 757.037 Q138.746 760.578 138.746 767.708 Q138.746 774.814 140.552 778.379 Q142.381 781.921 145.992 781.921 Q149.626 781.921 151.431 778.379 Q153.26 774.814 153.26 767.708 Q153.26 760.578 151.431 757.037 Q149.626 753.472 145.992 753.472 M145.992 749.768 Q151.802 749.768 154.857 754.375 Q157.936 758.958 157.936 767.708 Q157.936 776.435 154.857 781.041 Q151.802 785.625 145.992 785.625 Q140.181 785.625 137.103 781.041 Q134.047 776.435 134.047 767.708 Q134.047 758.958 137.103 754.375 Q140.181 749.768 145.992 749.768 Z" fill="#000000" fill-rule="nonzero" fill-opacity="1" /><path clip-path="url(#clip570)" d="M101.756 423.102 Q98.1447 423.102 96.316 426.667 Q94.5104 430.209 94.5104 437.338 Q94.5104 444.445 96.316 448.009 Q98.1447 451.551 101.756 451.551 Q105.39 451.551 107.196 448.009 Q109.024 444.445 109.024 437.338 Q109.024 430.209 107.196 426.667 Q105.39 423.102 101.756 423.102 M101.756 419.398 Q107.566 419.398 110.621 424.005 Q113.7 428.588 113.7 437.338 Q113.7 446.065 110.621 450.671 Q107.566 455.255 101.756 455.255 Q95.9456 455.255 92.8669 450.671 Q89.8114 446.065 89.8114 437.338 Q89.8114 428.588 92.8669 424.005 Q95.9456 419.398 101.756 419.398 Z" fill="#000000" fill-rule="nonzero" fill-opacity="1" /><path clip-path="url(#clip570)" d="M121.918 448.704 L126.802 448.704 L126.802 454.583 L121.918 454.583 L121.918 448.704 Z" fill="#000000" fill-rule="nonzero" fill-opacity="1" /><path clip-path="url(#clip570)" d="M137.033 420.023 L155.39 420.023 L155.39 423.959 L141.316 423.959 L141.316 432.431 Q142.334 432.084 143.353 431.921 Q144.371 431.736 145.39 431.736 Q151.177 431.736 154.556 434.908 Q157.936 438.079 157.936 443.495 Q157.936 449.074 154.464 452.176 Q150.992 455.255 144.672 455.255 Q142.496 455.255 140.228 454.884 Q137.982 454.514 135.575 453.773 L135.575 449.074 Q137.658 450.208 139.881 450.764 Q142.103 451.32 144.58 451.32 Q148.584 451.32 150.922 449.213 Q153.26 447.107 153.26 443.495 Q153.26 439.884 150.922 437.778 Q148.584 435.671 144.58 435.671 Q142.705 435.671 140.83 436.088 Q138.978 436.505 137.033 437.384 L137.033 420.023 Z" fill="#000000" fill-rule="nonzero" fill-opacity="1" /><path clip-path="url(#clip570)" d="M91.5706 120.278 L99.2095 120.278 L99.2095 93.9127 L90.8993 95.5794 L90.8993 91.3201 L99.1632 89.6535 L103.839 89.6535 L103.839 120.278 L111.478 120.278 L111.478 124.213 L91.5706 124.213 L91.5706 120.278 Z" fill="#000000" fill-rule="nonzero" fill-opacity="1" /><path clip-path="url(#clip570)" d="M120.922 118.334 L125.807 118.334 L125.807 124.213 L120.922 124.213 L120.922 118.334 Z" fill="#000000" fill-rule="nonzero" fill-opacity="1" /><path clip-path="url(#clip570)" d="M145.992 92.7322 Q142.381 92.7322 140.552 96.297 Q138.746 99.8386 138.746 106.968 Q138.746 114.075 140.552 117.639 Q142.381 121.181 145.992 121.181 Q149.626 121.181 151.431 117.639 Q153.26 114.075 153.26 106.968 Q153.26 99.8386 151.431 96.297 Q149.626 92.7322 145.992 92.7322 M145.992 89.0285 Q151.802 89.0285 154.857 93.635 Q157.936 98.2183 157.936 106.968 Q157.936 115.695 154.857 120.301 Q151.802 124.885 145.992 124.885 Q140.181 124.885 137.103 120.301 Q134.047 115.695 134.047 106.968 Q134.047 98.2183 137.103 93.635 Q140.181 89.0285 145.992 89.0285 Z" fill="#000000" fill-rule="nonzero" fill-opacity="1" /><circle clip-path="url(#clip572)" cx="734.673" cy="1120.29" r="14.4" fill="#009af9" fill-rule="evenodd" fill-opacity="1" stroke="#000000" stroke-opacity="1" stroke-width="3.2"/>
<circle clip-path="url(#clip572)" cx="652.397" cy="580.297" r="14.4" fill="#009af9" fill-rule="evenodd" fill-opacity="1" stroke="#000000" stroke-opacity="1" stroke-width="3.2"/>
<circle clip-path="url(#clip572)" cx="1461.6" cy="155.252" r="14.4" fill="#009af9" fill-rule="evenodd" fill-opacity="1" stroke="#000000" stroke-opacity="1" stroke-width="3.2"/>
<circle clip-path="url(#clip572)" cx="1907.25" cy="490.158" r="14.4" fill="#009af9" fill-rule="evenodd" fill-opacity="1" stroke="#000000" stroke-opacity="1" stroke-width="3.2"/>
<circle clip-path="url(#clip572)" cx="1760.71" cy="328.581" r="14.4" fill="#009af9" fill-rule="evenodd" fill-opacity="1" stroke="#000000" stroke-opacity="1" stroke-width="3.2"/>
<circle clip-path="url(#clip572)" cx="1947.02" cy="893.992" r="14.4" fill="#009af9" fill-rule="evenodd" fill-opacity="1" stroke="#000000" stroke-opacity="1" stroke-width="3.2"/>
<circle clip-path="url(#clip572)" cx="1527.94" cy="1390.25" r="14.4" fill="#009af9" fill-rule="evenodd" fill-opacity="1" stroke="#000000" stroke-opacity="1" stroke-width="3.2"/>
<circle clip-path="url(#clip572)" cx="986.317" cy="169.468" r="14.4" fill="#009af9" fill-rule="evenodd" fill-opacity="1" stroke="#000000" stroke-opacity="1" stroke-width="3.2"/>
<circle clip-path="url(#clip572)" cx="1868.82" cy="1061.53" r="14.4" fill="#009af9" fill-rule="evenodd" fill-opacity="1" stroke="#000000" stroke-opacity="1" stroke-width="3.2"/>
<circle clip-path="url(#clip572)" cx="1901.96" cy="718.902" r="14.4" fill="#009af9" fill-rule="evenodd" fill-opacity="1" stroke="#000000" stroke-opacity="1" stroke-width="3.2"/>
<circle clip-path="url(#clip572)" cx="1185.2" cy="1427.55" r="14.4" fill="#009af9" fill-rule="evenodd" fill-opacity="1" stroke="#000000" stroke-opacity="1" stroke-width="3.2"/>
<circle clip-path="url(#clip572)" cx="1710.56" cy="1221.5" r="14.4" fill="#009af9" fill-rule="evenodd" fill-opacity="1" stroke="#000000" stroke-opacity="1" stroke-width="3.2"/>
<circle clip-path="url(#clip572)" cx="822.693" cy="280.765" r="14.4" fill="#009af9" fill-rule="evenodd" fill-opacity="1" stroke="#000000" stroke-opacity="1" stroke-width="3.2"/>
<circle clip-path="url(#clip572)" cx="1636.4" cy="246.199" r="14.4" fill="#009af9" fill-rule="evenodd" fill-opacity="1" stroke="#000000" stroke-opacity="1" stroke-width="3.2"/>
<circle clip-path="url(#clip572)" cx="726.633" cy="385.627" r="14.4" fill="#009af9" fill-rule="evenodd" fill-opacity="1" stroke="#000000" stroke-opacity="1" stroke-width="3.2"/>
<circle clip-path="url(#clip572)" cx="599.672" cy="826.135" r="14.4" fill="#009af9" fill-rule="evenodd" fill-opacity="1" stroke="#000000" stroke-opacity="1" stroke-width="3.2"/>
<circle clip-path="url(#clip572)" cx="950.804" cy="1365.43" r="14.4" fill="#009af9" fill-rule="evenodd" fill-opacity="1" stroke="#000000" stroke-opacity="1" stroke-width="3.2"/>
<circle clip-path="url(#clip572)" cx="1182.98" cy="87.9763" r="14.4" fill="#009af9" fill-rule="evenodd" fill-opacity="1" stroke="#000000" stroke-opacity="1" stroke-width="3.2"/>
<circle clip-path="url(#clip572)" cx="820.496" cy="1284.53" r="14.4" fill="#009af9" fill-rule="evenodd" fill-opacity="1" stroke="#000000" stroke-opacity="1" stroke-width="3.2"/>
<circle clip-path="url(#clip572)" cx="1351.54" cy="1445.72" r="14.4" fill="#009af9" fill-rule="evenodd" fill-opacity="1" stroke="#000000" stroke-opacity="1" stroke-width="3.2"/>
<circle clip-path="url(#clip572)" cx="655.371" cy="948.43" r="14.4" fill="#009af9" fill-rule="evenodd" fill-opacity="1" stroke="#000000" stroke-opacity="1" stroke-width="3.2"/>
<circle clip-path="url(#clip572)" cx="1335.83" cy="90.1937" r="14.4" fill="#009af9" fill-rule="evenodd" fill-opacity="1" stroke="#000000" stroke-opacity="1" stroke-width="3.2"/>
<circle clip-path="url(#clip572)" cx="1003.86" cy="943.984" r="14.4" fill="#009af9" fill-rule="evenodd" fill-opacity="1" stroke="#000000" stroke-opacity="1" stroke-width="3.2"/>
<circle clip-path="url(#clip572)" cx="962.718" cy="673.985" r="14.4" fill="#009af9" fill-rule="evenodd" fill-opacity="1" stroke="#000000" stroke-opacity="1" stroke-width="3.2"/>
<circle clip-path="url(#clip572)" cx="1367.32" cy="461.463" r="14.4" fill="#009af9" fill-rule="evenodd" fill-opacity="1" stroke="#000000" stroke-opacity="1" stroke-width="3.2"/>
<circle clip-path="url(#clip572)" cx="1590.14" cy="628.916" r="14.4" fill="#009af9" fill-rule="evenodd" fill-opacity="1" stroke="#000000" stroke-opacity="1" stroke-width="3.2"/>
<circle clip-path="url(#clip572)" cx="1610.03" cy="830.833" r="14.4" fill="#009af9" fill-rule="evenodd" fill-opacity="1" stroke="#000000" stroke-opacity="1" stroke-width="3.2"/>
<circle clip-path="url(#clip572)" cx="1400.49" cy="1078.96" r="14.4" fill="#009af9" fill-rule="evenodd" fill-opacity="1" stroke="#000000" stroke-opacity="1" stroke-width="3.2"/>
<circle clip-path="url(#clip572)" cx="1129.68" cy="468.57" r="14.4" fill="#009af9" fill-rule="evenodd" fill-opacity="1" stroke="#000000" stroke-opacity="1" stroke-width="3.2"/>
<circle clip-path="url(#clip572)" cx="1229.12" cy="1097.61" r="14.4" fill="#009af9" fill-rule="evenodd" fill-opacity="1" stroke="#000000" stroke-opacity="1" stroke-width="3.2"/>
<circle clip-path="url(#clip572)" cx="1504.14" cy="510.822" r="14.4" fill="#009af9" fill-rule="evenodd" fill-opacity="1" stroke="#000000" stroke-opacity="1" stroke-width="3.2"/>
<circle clip-path="url(#clip572)" cx="1017.49" cy="543.453" r="14.4" fill="#009af9" fill-rule="evenodd" fill-opacity="1" stroke="#000000" stroke-opacity="1" stroke-width="3.2"/>
<circle clip-path="url(#clip572)" cx="1524.76" cy="995.004" r="14.4" fill="#009af9" fill-rule="evenodd" fill-opacity="1" stroke="#000000" stroke-opacity="1" stroke-width="3.2"/>
<circle clip-path="url(#clip572)" cx="1082.85" cy="1053.87" r="14.4" fill="#009af9" fill-rule="evenodd" fill-opacity="1" stroke="#000000" stroke-opacity="1" stroke-width="3.2"/>
<circle clip-path="url(#clip572)" cx="946.081" cy="812.027" r="14.4" fill="#009af9" fill-rule="evenodd" fill-opacity="1" stroke="#000000" stroke-opacity="1" stroke-width="3.2"/>
<polyline clip-path="url(#clip572)" style="stroke:#000000; stroke-linecap:round; stroke-linejoin:round; stroke-width:4; stroke-opacity:1; fill:none" points="734.673,1120.29 820.496,1284.53 "/>
<polyline clip-path="url(#clip572)" style="stroke:#000000; stroke-linecap:round; stroke-linejoin:round; stroke-width:4; stroke-opacity:1; fill:none" points="734.673,1120.29 655.371,948.43 "/>
<polyline clip-path="url(#clip572)" style="stroke:#000000; stroke-linecap:round; stroke-linejoin:round; stroke-width:4; stroke-opacity:1; fill:none" points="652.397,580.297 726.633,385.627 "/>
<polyline clip-path="url(#clip572)" style="stroke:#000000; stroke-linecap:round; stroke-linejoin:round; stroke-width:4; stroke-opacity:1; fill:none" points="1461.6,155.252 1636.4,246.199 "/>
<polyline clip-path="url(#clip572)" style="stroke:#000000; stroke-linecap:round; stroke-linejoin:round; stroke-width:4; stroke-opacity:1; fill:none" points="1461.6,155.252 1335.83,90.1937 "/>
<polyline clip-path="url(#clip572)" style="stroke:#000000; stroke-linecap:round; stroke-linejoin:round; stroke-width:4; stroke-opacity:1; fill:none" points="1907.25,490.158 1760.71,328.581 "/>
<polyline clip-path="url(#clip572)" style="stroke:#000000; stroke-linecap:round; stroke-linejoin:round; stroke-width:4; stroke-opacity:1; fill:none" points="1907.25,490.158 1901.96,718.902 "/>
<polyline clip-path="url(#clip572)" style="stroke:#000000; stroke-linecap:round; stroke-linejoin:round; stroke-width:4; stroke-opacity:1; fill:none" points="1760.71,328.581 1636.4,246.199 "/>
<polyline clip-path="url(#clip572)" style="stroke:#000000; stroke-linecap:round; stroke-linejoin:round; stroke-width:4; stroke-opacity:1; fill:none" points="1947.02,893.992 1868.82,1061.53 "/>
<polyline clip-path="url(#clip572)" style="stroke:#000000; stroke-linecap:round; stroke-linejoin:round; stroke-width:4; stroke-opacity:1; fill:none" points="1947.02,893.992 1901.96,718.902 "/>
<polyline clip-path="url(#clip572)" style="stroke:#000000; stroke-linecap:round; stroke-linejoin:round; stroke-width:4; stroke-opacity:1; fill:none" points="1527.94,1390.25 1710.56,1221.5 "/>
<polyline clip-path="url(#clip572)" style="stroke:#000000; stroke-linecap:round; stroke-linejoin:round; stroke-width:4; stroke-opacity:1; fill:none" points="1527.94,1390.25 1351.54,1445.72 "/>
<polyline clip-path="url(#clip572)" style="stroke:#000000; stroke-linecap:round; stroke-linejoin:round; stroke-width:4; stroke-opacity:1; fill:none" points="986.317,169.468 822.693,280.765 "/>
<polyline clip-path="url(#clip572)" style="stroke:#000000; stroke-linecap:round; stroke-linejoin:round; stroke-width:4; stroke-opacity:1; fill:none" points="986.317,169.468 1182.98,87.9763 "/>
<polyline clip-path="url(#clip572)" style="stroke:#000000; stroke-linecap:round; stroke-linejoin:round; stroke-width:4; stroke-opacity:1; fill:none" points="1868.82,1061.53 1710.56,1221.5 "/>
<polyline clip-path="url(#clip572)" style="stroke:#000000; stroke-linecap:round; stroke-linejoin:round; stroke-width:4; stroke-opacity:1; fill:none" points="1185.2,1427.55 950.804,1365.43 "/>
<polyline clip-path="url(#clip572)" style="stroke:#000000; stroke-linecap:round; stroke-linejoin:round; stroke-width:4; stroke-opacity:1; fill:none" points="1185.2,1427.55 1351.54,1445.72 "/>
<polyline clip-path="url(#clip572)" style="stroke:#000000; stroke-linecap:round; stroke-linejoin:round; stroke-width:4; stroke-opacity:1; fill:none" points="822.693,280.765 726.633,385.627 "/>
<polyline clip-path="url(#clip572)" style="stroke:#000000; stroke-linecap:round; stroke-linejoin:round; stroke-width:4; stroke-opacity:1; fill:none" points="599.672,826.135 655.371,948.43 "/>
<polyline clip-path="url(#clip572)" style="stroke:#000000; stroke-linecap:round; stroke-linejoin:round; stroke-width:4; stroke-opacity:1; fill:none" points="950.804,1365.43 820.496,1284.53 "/>
<polyline clip-path="url(#clip572)" style="stroke:#000000; stroke-linecap:round; stroke-linejoin:round; stroke-width:4; stroke-opacity:1; fill:none" points="1182.98,87.9763 1335.83,90.1937 "/>
<polyline clip-path="url(#clip572)" style="stroke:#000000; stroke-linecap:round; stroke-linejoin:round; stroke-width:4; stroke-opacity:1; fill:none" points="1003.86,943.984 1082.85,1053.87 "/>
<polyline clip-path="url(#clip572)" style="stroke:#000000; stroke-linecap:round; stroke-linejoin:round; stroke-width:4; stroke-opacity:1; fill:none" points="1003.86,943.984 946.081,812.027 "/>
<polyline clip-path="url(#clip572)" style="stroke:#000000; stroke-linecap:round; stroke-linejoin:round; stroke-width:4; stroke-opacity:1; fill:none" points="962.718,673.985 1017.49,543.453 "/>
<polyline clip-path="url(#clip572)" style="stroke:#000000; stroke-linecap:round; stroke-linejoin:round; stroke-width:4; stroke-opacity:1; fill:none" points="962.718,673.985 946.081,812.027 "/>
<polyline clip-path="url(#clip572)" style="stroke:#000000; stroke-linecap:round; stroke-linejoin:round; stroke-width:4; stroke-opacity:1; fill:none" points="1367.32,461.463 1129.68,468.57 "/>
<polyline clip-path="url(#clip572)" style="stroke:#000000; stroke-linecap:round; stroke-linejoin:round; stroke-width:4; stroke-opacity:1; fill:none" points="1367.32,461.463 1504.14,510.822 "/>
<polyline clip-path="url(#clip572)" style="stroke:#000000; stroke-linecap:round; stroke-linejoin:round; stroke-width:4; stroke-opacity:1; fill:none" points="1590.14,628.916 1610.03,830.833 "/>
<polyline clip-path="url(#clip572)" style="stroke:#000000; stroke-linecap:round; stroke-linejoin:round; stroke-width:4; stroke-opacity:1; fill:none" points="1590.14,628.916 1504.14,510.822 "/>
<polyline clip-path="url(#clip572)" style="stroke:#000000; stroke-linecap:round; stroke-linejoin:round; stroke-width:4; stroke-opacity:1; fill:none" points="1610.03,830.833 1524.76,995.004 "/>
<polyline clip-path="url(#clip572)" style="stroke:#000000; stroke-linecap:round; stroke-linejoin:round; stroke-width:4; stroke-opacity:1; fill:none" points="1400.49,1078.96 1229.12,1097.61 "/>
<polyline clip-path="url(#clip572)" style="stroke:#000000; stroke-linecap:round; stroke-linejoin:round; stroke-width:4; stroke-opacity:1; fill:none" points="1400.49,1078.96 1524.76,995.004 "/>
<polyline clip-path="url(#clip572)" style="stroke:#000000; stroke-linecap:round; stroke-linejoin:round; stroke-width:4; stroke-opacity:1; fill:none" points="1129.68,468.57 1017.49,543.453 "/>
<polyline clip-path="url(#clip572)" style="stroke:#000000; stroke-linecap:round; stroke-linejoin:round; stroke-width:4; stroke-opacity:1; fill:none" points="1229.12,1097.61 1082.85,1053.87 "/>
</svg>
